<?xml version="1.0" standalone="no"?>
<!DOCTYPE svg PUBLIC "-//W3C//DTD SVG 1.1//EN" "http://www.w3.org/Graphics/SVG/1.1/DTD/svg11.dtd" >
<svg xmlns="http://www.w3.org/2000/svg" xmlns:xlink="http://www.w3.org/1999/xlink" version="1.1">
<metadata></metadata>
<defs>
<font id="press_start_2pregular" horiz-adv-x="2048" >
<font-face units-per-em="2048" ascent="2048" descent="0" />
<missing-glyph horiz-adv-x="500" />
<glyph unicode="fi" d="M0 1280v256h256v256h256v256h768v-256h-512v-256h1024v-1280h-512v1024h-512v-1024h-512v1024h-256z" />
<glyph unicode="fl" d="M0 1280v256h256v256h256v256h1280v-1792h-512v1024h-512v-1024h-512v1024h-256zM768 1536h512v256h-512v-256z" />
<glyph horiz-adv-x="0" />
<glyph horiz-adv-x="0" />
<glyph unicode=" " />
<glyph unicode="!" d="M512 256v256h512v-256h-512zM512 768v1280h768v-768h-256v-512h-512z" />
<glyph unicode="&#x22;" d="M256 1280v768h512v-768h-512zM1024 1280v768h512v-768h-512z" />
<glyph unicode="#" d="M0 512v256h256v768h-256v256h256v256h512v-256h256v256h512v-256h256v-256h-256v-768h256v-256h-256v-256h-512v256h-256v-256h-512v256h-256zM768 768h256v768h-256v-768z" />
<glyph unicode="$" d="M0 512v256h768v256h-512v256h-256v256h256v256h512v256h256v-256h512v-256h-512v-256h512v-256h256v-256h-256v-256h-512v-256h-256v256h-768zM512 1280h256v256h-256v-256zM1024 768h256v256h-256v-256z" />
<glyph unicode="%" d="M0 256v256h256v-256h-256zM0 1280v512h256v-256h256v-256h-512zM256 512v256h256v-256h-256zM256 1792v256h512v-512h-256v256h-256zM512 768v256h256v-256h-256zM768 1024v256h256v-256h-256zM1024 256v512h256v-256h256v-256h-512zM1024 1280v256h256v-256h-256z M1280 768v256h512v-512h-256v256h-256zM1280 1536v256h256v-256h-256zM1536 1792v256h256v-256h-256z" />
<glyph unicode="&#x26;" d="M0 512v512h256v256h-256v512h256v256h768v-256h256v-512h-256v-256h256v-256h256v-256h256v-256h-1536v256h-256zM512 512h512v256h-256v256h-256v-512zM512 1280h256v512h-256v-512zM1536 768v256h256v-256h-256z" />
<glyph unicode="'" d="M512 1280v768h512v-768h-512z" />
<glyph unicode="(" d="M512 768v768h256v256h256v256h512v-256h-256v-256h-256v-768h256v-256h256v-256h-512v256h-256v256h-256z" />
<glyph unicode=")" d="M256 256v256h256v256h256v768h-256v256h-256v256h512v-256h256v-256h256v-768h-256v-256h-256v-256h-512z" />
<glyph unicode="*" d="M0 1024v256h512v256h-256v256h512v-256h256v256h512v-256h-256v-256h512v-256h-512v-256h256v-256h-512v256h-256v-256h-512v256h256v256h-512z" />
<glyph unicode="+" d="M256 1024v256h512v512h512v-512h512v-256h-512v-512h-512v512h-512z" />
<glyph unicode="," d="M256 0v256h256v512h512v-512h-256v-256h-512z" />
<glyph unicode="-" d="M256 1024v256h1536v-256h-1536z" />
<glyph unicode="." d="M512 256v512h512v-512h-512z" />
<glyph unicode="/" d="M0 256v256h256v-256h-256zM256 512v256h256v-256h-256zM512 768v256h256v-256h-256zM768 1024v256h256v-256h-256zM1024 1280v256h256v-256h-256zM1280 1536v256h256v-256h-256zM1536 1792v256h256v-256h-256z" />
<glyph unicode="0" d="M0 768v768h256v256h256v256h768v-256h256v-256h256v-768h-256v-256h-256v-256h-768v256h-256v256h-256zM512 768h256v-256h512v1024h-256v256h-512v-1024z" />
<glyph unicode="1" d="M256 256v256h512v1024h-256v256h256v256h512v-1536h512v-256h-1536z" />
<glyph unicode="2" d="M0 256v512h256v256h256v256h512v256h256v256h-768v-256h-512v256h256v256h1280v-256h256v-512h-256v-256h-256v-256h-512v-256h1024v-256h-1792z" />
<glyph unicode="3" d="M0 512v256h512v-256h768v512h-768v256h256v256h256v256h-768v256h1536v-256h-256v-256h-256v-256h256v-256h256v-512h-256v-256h-1280v256h-256z" />
<glyph unicode="4" d="M0 768v512h256v256h256v256h256v256h768v-1024h256v-256h-256v-512h-512v512h-1024zM512 1024h512v512h-256v-256h-256v-256z" />
<glyph unicode="5" d="M0 512v256h512v-256h768v768h-1280v768h1536v-256h-1024v-256h1024v-256h256v-768h-256v-256h-1280v256h-256z" />
<glyph unicode="6" d="M0 512v1024h256v256h256v256h1024v-256h-768v-256h-256v-256h1024v-256h256v-512h-256v-256h-1280v256h-256zM512 512h768v512h-768v-512z" />
<glyph unicode="7" d="M0 1536v512h1792v-512h-256v-256h-256v-256h-256v-768h-512v768h256v256h256v256h256v256h-768v-256h-512z" />
<glyph unicode="8" d="M0 512v512h256v256h-256v512h256v256h1024v-256h256v-512h-256v-256h512v-512h-256v-256h-1280v256h-256zM256 512h1024v256h-512v256h-512v-512zM512 1536h256v-256h512v512h-768v-256z" />
<glyph unicode="9" d="M0 1280v512h256v256h1280v-256h256v-1024h-256v-256h-256v-256h-1024v256h768v256h256v256h-1024v256h-256zM512 1280h768v512h-768v-512z" />
<glyph unicode=":" d="M512 512v512h512v-512h-512zM512 1280v512h512v-512h-512z" />
<glyph unicode=";" d="M256 256v256h256v512h512v-512h-256v-256h-512zM512 1280v512h512v-512h-512z" />
<glyph unicode="&#x3c;" d="M256 1024v256h256v256h256v256h256v256h512v-256h-256v-256h-256v-256h-256v-256h256v-256h256v-256h256v-256h-512v256h-256v256h-256v256h-256z" />
<glyph unicode="=" d="M0 768v256h1792v-256h-1792zM0 1280v256h1792v-256h-1792z" />
<glyph unicode="&#x3e;" d="M256 256v256h256v256h256v256h256v256h-256v256h-256v256h-256v256h512v-256h256v-256h256v-256h256v-256h-256v-256h-256v-256h-256v-256h-512z" />
<glyph unicode="?" d="M0 1280v512h256v256h1280v-256h256v-512h-256v-256h-256v-256h-768v256h512v256h256v256h-768v-256h-512zM512 256v256h768v-256h-768z" />
<glyph unicode="@" d="M0 512v1280h256v-1280h-256zM256 256v256h1280v-256h-1280zM256 1792v256h1280v-256h-1280zM512 768v768h768v-512h256v768h256v-1024h-1280zM768 1024h256v256h-256v-256z" />
<glyph unicode="A" d="M0 256v1280h256v256h256v256h768v-256h256v-256h256v-1280h-512v512h-768v-512h-512zM512 1024h768v512h-256v256h-256v-256h-256v-512z" />
<glyph unicode="B" d="M0 256v1792h1536v-256h256v-512h-256v-256h256v-512h-256v-256h-1536zM512 512h768v512h-768v-512zM512 1280h768v512h-768v-512z" />
<glyph unicode="C" d="M0 768v768h256v256h256v256h1024v-256h256v-256h-512v256h-512v-256h-256v-768h256v-256h512v256h512v-256h-256v-256h-1024v256h-256v256h-256z" />
<glyph unicode="D" d="M0 256v1792h1280v-256h256v-256h256v-768h-256v-256h-256v-256h-1280zM512 512h512v256h256v768h-256v256h-512v-1280z" />
<glyph unicode="E" d="M0 256v1792h1792v-256h-1280v-512h1024v-256h-1024v-512h1280v-256h-1792z" />
<glyph unicode="F" d="M0 256v1792h1792v-256h-1280v-512h1024v-256h-1024v-768h-512z" />
<glyph unicode="G" d="M0 768v768h256v256h256v256h1280v-256h-1024v-256h-256v-768h256v-256h512v512h-256v256h768v-1024h-1280v256h-256v256h-256z" />
<glyph unicode="H" d="M0 256v1792h512v-768h768v768h512v-1792h-512v768h-768v-768h-512z" />
<glyph unicode="I" d="M256 256v256h512v1280h-512v256h1536v-256h-512v-1280h512v-256h-1536z" />
<glyph unicode="J" d="M0 512v256h512v-256h768v1536h512v-1536h-256v-256h-1280v256h-256z" />
<glyph unicode="K" d="M0 256v1792h512v-768h256v256h256v256h256v256h512v-256h-256v-256h-256v-256h-256v-256h256v-256h256v-256h256v-256h-768v256h-256v256h-256v-512h-512z" />
<glyph unicode="L" d="M256 256v1792h512v-1536h1024v-256h-1536z" />
<glyph unicode="M" d="M0 256v1792h512v-256h256v-256h256v256h256v256h512v-1792h-512v1024h-256v-512h-256v512h-256v-1024h-512z" />
<glyph unicode="N" d="M0 256v1792h512v-256h256v-256h256v-256h256v768h512v-1792h-512v512h-256v256h-256v256h-256v-1024h-512z" />
<glyph unicode="O" d="M0 512v1280h256v256h1280v-256h256v-1280h-256v-256h-1280v256h-256zM512 512h768v1280h-768v-1280z" />
<glyph unicode="P" d="M0 256v1792h1536v-256h256v-768h-256v-256h-1024v-512h-512zM512 1024h768v768h-768v-768z" />
<glyph unicode="Q" d="M0 512v1280h256v256h1280v-256h256v-1024h-256v-256h-256v-256h-1024v256h-256zM512 512h512v256h-256v256h512v768h-768v-1280zM1536 256v256h256v-256h-256z" />
<glyph unicode="R" d="M0 256v1792h1536v-256h256v-768h-512v-256h256v-256h256v-256h-768v256h-256v256h-256v-512h-512zM512 1024h512v256h256v512h-768v-768z" />
<glyph unicode="S" d="M0 512v256h512v-256h768v512h-1024v256h-256v512h256v256h1280v-256h256v-256h-512v256h-768v-512h1024v-256h256v-512h-256v-256h-1280v256h-256z" />
<glyph unicode="T" d="M256 1792v256h1536v-256h-512v-1536h-512v1536h-512z" />
<glyph unicode="U" d="M0 512v1536h512v-1536h768v1536h512v-1536h-256v-256h-1280v256h-256z" />
<glyph unicode="V" d="M0 1024v1024h512v-768h256v-256h256v256h256v768h512v-1024h-256v-256h-256v-256h-256v-256h-256v256h-256v256h-256v256h-256z" />
<glyph unicode="W" d="M0 512v1536h512v-1024h256v1024h256v-1024h256v1024h512v-1536h-256v-256h-256v256h-256v256h-256v-256h-256v-256h-256v256h-256z" />
<glyph unicode="X" d="M0 256v512h256v256h256v256h-256v256h-256v512h512v-512h256v-256h256v256h256v512h512v-512h-256v-256h-256v-256h256v-256h256v-512h-512v512h-256v256h-256v-256h-256v-512h-512z" />
<glyph unicode="Y" d="M256 1280v768h512v-768h512v768h512v-768h-256v-256h-256v-768h-512v768h-256v256h-256z" />
<glyph unicode="Z" d="M0 256v512h256v256h256v256h256v256h256v256h-1024v256h1792v-512h-256v-256h-256v-256h-256v-256h-256v-256h1024v-256h-1792z" />
<glyph unicode="[" d="M512 256v1792h1024v-256h-512v-1280h512v-256h-1024z" />
<glyph unicode="\" d="M0 1792v256h256v-256h-256zM256 1536v256h256v-256h-256zM512 1280v256h256v-256h-256zM768 1024v256h256v-256h-256zM1024 768v256h256v-256h-256zM1280 512v256h256v-256h-256zM1536 256v256h256v-256h-256z" />
<glyph unicode="]" d="M256 256v256h512v1280h-512v256h1024v-1792h-1024z" />
<glyph unicode="^" d="M256 1536v256h256v256h768v-256h256v-256h-512v256h-256v-256h-512z" />
<glyph unicode="_" d="M0 0v256h1792v-256h-1792z" />
<glyph unicode="`" d="M768 1792v256h256v-256h-256zM1024 1536v256h256v-256h-256z" />
<glyph unicode="a" d="M0 512v256h256v256h1024v256h-1024v256h1280v-256h256v-1024h-1536v256h-256zM512 512h768v256h-768v-256z" />
<glyph unicode="b" d="M0 512v1536h512v-512h1024v-256h256v-768h-256v-256h-1280v256h-256zM512 512h768v768h-768v-768z" />
<glyph unicode="c" d="M0 512v768h256v256h1536v-256h-1280v-768h1280v-256h-1536v256h-256z" />
<glyph unicode="d" d="M0 512v768h256v256h1024v512h512v-1792h-1536v256h-256zM512 512h768v768h-768v-768z" />
<glyph unicode="e" d="M0 512v768h256v256h1280v-256h256v-512h-1280v-256h1024v-256h-1280v256h-256zM512 1024h768v256h-768v-256z" />
<glyph unicode="f" d="M256 1280v256h512v256h256v256h768v-256h-512v-256h512v-256h-512v-1024h-512v1024h-512z" />
<glyph unicode="g" d="M0 768v512h256v256h1536v-1280h-256v-256h-1280v256h1024v256h-1024v256h-256zM512 768h768v512h-768v-512z" />
<glyph unicode="h" d="M0 256v1792h512v-512h1024v-256h256v-1024h-512v1024h-768v-1024h-512z" />
<glyph unicode="i" d="M256 256v256h512v768h-256v256h768v-1024h512v-256h-1536zM768 1792v256h512v-256h-512z" />
<glyph unicode="j" d="M256 0v256h768v1024h-256v256h768v-1280h-256v-256h-1024zM1024 1792v256h512v-256h-512z" />
<glyph unicode="k" d="M0 256v1792h512v-1024h512v256h256v256h512v-256h-256v-256h-256v-256h256v-256h256v-256h-512v256h-256v256h-512v-512h-512z" />
<glyph unicode="l" d="M256 256v256h512v1280h-256v256h768v-1536h512v-256h-1536z" />
<glyph unicode="m" d="M0 256v1280h1536v-256h256v-1024h-512v1024h-256v-1024h-512v1024h-256v-1024h-256z" />
<glyph unicode="n" d="M0 256v1280h1536v-256h256v-1024h-512v1024h-768v-1024h-512z" />
<glyph unicode="o" d="M0 512v768h256v256h1280v-256h256v-768h-256v-256h-1280v256h-256zM512 512h768v768h-768v-768z" />
<glyph unicode="p" d="M0 0v1536h1536v-256h256v-512h-256v-256h-1024v-512h-512zM512 768h768v512h-768v-512z" />
<glyph unicode="q" d="M0 768v512h256v256h1536v-1536h-512v512h-1024v256h-256zM512 768h768v512h-768v-512z" />
<glyph unicode="r" d="M256 256v1280h512v-256h256v-256h-256v-768h-512zM1024 1280v256h768v-256h-768z" />
<glyph unicode="s" d="M0 256v256h1280v256h-1024v256h-256v256h256v256h1280v-256h-1024v-256h1024v-256h256v-256h-256v-256h-1536z" />
<glyph unicode="t" d="M256 1280v256h512v512h512v-512h512v-256h-512v-1024h-512v1024h-512z" />
<glyph unicode="u" d="M0 512v1024h512v-1024h768v1024h512v-1280h-1536v256h-256z" />
<glyph unicode="v" d="M256 768v768h512v-768h512v768h512v-768h-256v-256h-256v-256h-512v256h-256v256h-256z" />
<glyph unicode="w" d="M0 512v1024h512v-1024h256v-256h-512v256h-256zM768 512v1024h256v-1024h-256zM1024 256v256h256v1024h512v-1024h-256v-256h-512z" />
<glyph unicode="x" d="M0 256v256h256v256h256v256h-256v256h-256v256h512v-256h256v-256h256v256h256v256h512v-256h-256v-256h-256v-256h256v-256h256v-256h-512v256h-256v256h-256v-256h-256v-256h-512z" />
<glyph unicode="y" d="M0 768v768h512v-768h768v768h512v-1280h-256v-256h-1280v256h1024v256h-1024v256h-256z" />
<glyph unicode="z" d="M0 256v256h256v256h256v256h256v256h-768v256h1792v-256h-256v-256h-256v-256h-256v-256h768v-256h-1792z" />
<glyph unicode="{" d="M512 1024v256h256v512h256v256h512v-256h-256v-512h-256v-256h256v-512h256v-256h-512v256h-256v512h-256z" />
<glyph unicode="|" d="M768 256v1792h512v-1792h-512z" />
<glyph unicode="}" d="M256 256v256h256v512h256v256h-256v512h-256v256h512v-256h256v-512h256v-256h-256v-512h-256v-256h-512z" />
<glyph unicode="~" d="M0 1024v256h256v-256h-256zM256 1280v256h768v-256h256v-256h256v-256h-768v256h-256v256h-256zM1536 1024v256h256v-256h-256z" />
<glyph d="M256 256v512h512v-512h-512zM1024 256v512h512v-512h-512z" />
<glyph unicode="&#xa0;" />
<glyph unicode="&#xa1;" d="M512 256v768h256v512h512v-1280h-768zM768 1792v256h512v-256h-512z" />
<glyph unicode="&#xa2;" d="M0 768v768h256v256h512v256h256v-256h512v-256h256v-256h-512v256h-256v-768h256v256h512v-256h-256v-256h-512v-256h-256v256h-512v256h-256zM512 768h256v768h-256v-768z" />
<glyph unicode="&#xa3;" d="M0 256v256h256v512h-256v256h256v512h256v256h1024v-256h256v-256h-512v256h-512v-512h768v-256h-768v-512h1024v-256h-1792z" />
<glyph unicode="&#xa4;" d="M256 512v256h256v-256h-256zM256 1536v256h256v-256h-256zM512 768v768h256v-768h-256zM768 512v256h512v-256h-512zM768 1536v256h512v-256h-512zM1280 768v768h256v-768h-256zM1536 512v256h256v-256h-256zM1536 1536v256h256v-256h-256z" />
<glyph unicode="&#xa5;" d="M256 512v256h512v256h-512v256h256v256h-256v512h512v-512h512v512h512v-512h-256v-256h256v-256h-512v-256h512v-256h-512v-256h-512v256h-512z" />
<glyph unicode="&#xa6;" d="M768 256v768h512v-768h-512zM768 1280v768h512v-768h-512z" />
<glyph unicode="&#xa7;" d="M256 512v256h512v-256h512v256h-512v256h512v256h256v-256h256v-512h-256v-256h-1024v256h-256zM256 1280v512h256v256h1024v-256h256v-256h-512v256h-512v-256h512v-256h-512v-256h-256v256h-256z" />
<glyph unicode="&#xa8;" d="M256 1792v256h512v-256h-512zM1024 1792v256h512v-256h-512z" />
<glyph unicode="&#xa9;" d="M0 512v1024h256v-1024h-256zM256 256v256h256v-256h-256zM256 1536v256h256v-256h-256zM512 0v256h1024v-256h-1024zM512 768v512h256v-512h-256zM512 1792v256h1024v-256h-1024zM768 512v256h512v-256h-512zM768 1280v256h512v-256h-512zM1536 256v256h256v-256h-256z M1536 1536v256h256v-256h-256zM1792 512v1024h256v-1024h-256z" />
<glyph unicode="&#xaa;" d="M256 1280v256h256v256h-256v256h1024v-256h256v-768h-1024v256h-256zM768 1280h256v256h-256v-256z" />
<glyph unicode="&#xab;" d="M0 1024v256h256v256h256v256h512v-256h256v256h512v-256h-256v-256h-256v-256h256v-256h256v-256h-512v256h-256v-256h-512v256h-256v256h-256zM512 1024h256v-256h256v256h-256v256h256v256h-256v-256h-256v-256z" />
<glyph unicode="&#xac;" d="M256 1280v256h1536v-768h-512v512h-1024z" />
<glyph unicode="&#xad;" d="M256 1024v256h1536v-256h-1536z" />
<glyph unicode="&#xae;" d="M0 512v1024h256v-1024h-256zM256 256v256h256v-256h-256zM256 1536v256h256v-256h-256zM512 0v256h1024v-256h-1024zM512 512v1024h768v-256h-512v-256h512v-256h-512v-256h-256zM512 1792v256h1024v-256h-1024zM1280 512v256h256v-256h-256zM1280 1024v256h256v-256 h-256zM1536 256v256h256v-256h-256zM1536 1536v256h256v-256h-256zM1792 512v1024h256v-1024h-256z" />
<glyph unicode="&#xaf;" d="M256 1792v256h1280v-256h-1280z" />
<glyph unicode="&#xb0;" d="M512 1536v256h256v-256h-256zM768 1280v256h256v-256h-256zM768 1792v256h256v-256h-256zM1024 1536v256h256v-256h-256z" />
<glyph unicode="&#xb1;" d="M256 256v256h1536v-256h-1536zM256 1280v256h512v512h512v-512h512v-256h-512v-512h-512v512h-512z" />
<glyph unicode="&#xb2;" d="M512 1024v256h256v256h256v256h-512v256h768v-256h256v-256h-256v-256h256v-256h-1024z" />
<glyph unicode="&#xb3;" d="M512 1024v256h512v256h-256v256h-256v256h1024v-256h-256v-256h256v-256h-256v-256h-768z" />
<glyph unicode="&#xb4;" d="M768 1536v256h256v-256h-256zM1024 1792v256h256v-256h-256z" />
<glyph unicode="&#xb5;" d="M0 0v1536h512v-1024h512v-256h-512v-256h-512zM1024 512v1024h512v-1024h256v-256h-512v256h-256z" />
<glyph unicode="&#xb6;" d="M256 1024v768h256v256h1280v-1792h-256v512h-256v-512h-256v512h-512v256h-256zM512 1280h256v-256h256v768h-256v-256h-256v-256zM1280 1024h256v768h-256v-768z" />
<glyph unicode="&#xb7;" d="M512 768v512h512v-512h-512z" />
<glyph unicode="&#xb8;" d="M512 0v256h512v-256h-512zM1024 256v256h256v-256h-256z" />
<glyph unicode="&#xb9;" d="M512 1024v256h256v256h-256v256h256v256h512v-768h256v-256h-1024z" />
<glyph unicode="&#xba;" d="M256 1280v512h256v256h768v-256h256v-512h-256v-256h-768v256h-256zM768 1280h256v512h-256v-512z" />
<glyph unicode="&#xbb;" d="M0 512v256h256v256h256v256h-256v256h-256v256h512v-256h256v256h512v-256h256v-256h256v-256h-256v-256h-256v-256h-512v256h-256v-256h-512zM768 768h256v256h256v256h-256v256h-256v-256h256v-256h-256v-256z" />
<glyph unicode="&#xbc;" d="M0 256v256h256v-256h-256zM0 1536v256h256v256h256v-1024h-256v512h-256zM256 512v256h256v-256h-256zM512 768v256h256v-256h-256zM768 1024v256h256v-256h-256zM1024 512v256h256v256h256v256h256v-1024h-256v256h-512zM1024 1280v256h256v-256h-256zM1280 1536v256 h256v-256h-256zM1536 1792v256h256v-256h-256z" />
<glyph unicode="&#xbd;" d="M0 256v256h256v-256h-256zM0 1536v256h256v256h256v-1024h-256v512h-256zM256 512v256h256v-256h-256zM512 768v256h256v-256h-256zM768 1024v256h256v-256h-256zM1024 256v256h256v256h256v-256h256v-256h-768zM1024 1280v256h256v-256h-256zM1280 1024v256h512v-512 h-256v256h-256zM1280 1536v256h256v-256h-256zM1536 1792v256h256v-256h-256z" />
<glyph unicode="&#xbe;" d="M0 256v256h256v-256h-256zM0 1024v256h512v-256h-512zM0 1792v256h768v-256h-256v-256h-256v256h-256zM256 512v256h256v-256h-256zM512 768v256h256v-256h-256zM512 1280v256h256v-256h-256zM768 1024v256h256v-256h-256zM1024 512v256h256v256h256v256h256v-1024h-256 v256h-512zM1024 1280v256h256v-256h-256zM1280 1536v256h256v-256h-256zM1536 1792v256h256v-256h-256z" />
<glyph unicode="&#xbf;" d="M0 512v512h256v256h256v256h768v-256h-512v-256h-256v-256h768v256h512v-512h-256v-256h-1280v256h-256zM512 1792v256h768v-256h-768z" />
<glyph unicode="&#xc0;" d="M0 256v768h256v256h256v256h256v256h256v-256h256v-256h256v-256h256v-768h-512v256h-768v-256h-512zM512 768h768v256h-256v256h-256v-256h-256v-256zM512 1792v256h256v-256h-256z" />
<glyph unicode="&#xc1;" d="M0 256v768h256v256h256v256h256v256h256v-256h256v-256h256v-256h256v-768h-512v256h-768v-256h-512zM512 768h768v256h-256v256h-256v-256h-256v-256zM1024 1792v256h256v-256h-256z" />
<glyph unicode="&#xc2;" d="M0 256v768h256v256h256v256h-256v256h256v256h768v-256h256v-256h-256v-256h256v-256h256v-768h-512v256h-768v-256h-512zM512 768h768v256h-256v256h-256v-256h-256v-256zM768 1536h256v256h-256v-256z" />
<glyph unicode="&#xc3;" d="M0 256v768h256v256h256v256h256v256h-256v256h512v-256h256v-512h256v-256h256v-768h-512v256h-768v-256h-512zM256 1536v256h256v-256h-256zM512 768h768v256h-256v256h-256v-256h-256v-256zM1280 1792v256h256v-256h-256z" />
<glyph unicode="&#xc4;" d="M0 256v768h256v256h256v256h768v-256h256v-256h256v-768h-512v256h-768v-256h-512zM256 1792v256h512v-256h-512zM512 768h768v256h-256v256h-256v-256h-256v-256zM1024 1792v256h512v-256h-512z" />
<glyph unicode="&#xc5;" d="M0 256v768h256v256h256v512h256v256h256v-256h256v-512h256v-256h256v-768h-512v256h-768v-256h-512zM512 768h768v256h-256v256h-256v-256h-256v-256zM768 1536h256v256h-256v-256z" />
<glyph unicode="&#xc6;" d="M0 256v1280h256v256h256v256h1280v-256h-512v-512h512v-256h-512v-512h512v-256h-1024v512h-256v-512h-512zM512 1024h256v512h-256v-512z" />
<glyph unicode="&#xc7;" d="M0 1024v512h256v256h256v256h1024v-256h256v-256h-512v256h-512v-256h-256v-512h256v-256h512v256h512v-256h-256v-256h-256v-256h-256v256h-512v256h-256v256h-256zM512 0v256h512v-256h-512z" />
<glyph unicode="&#xc8;" d="M0 256v1280h768v256h256v-256h768v-256h-1280v-256h1024v-256h-1024v-256h1280v-256h-1792zM512 1792v256h256v-256h-256z" />
<glyph unicode="&#xc9;" d="M0 256v1280h768v256h256v-256h768v-256h-1280v-256h1024v-256h-1024v-256h1280v-256h-1792zM1024 1792v256h256v-256h-256z" />
<glyph unicode="&#xca;" d="M0 256v1280h256v256h256v256h768v-256h256v-256h256v-256h-1280v-256h1024v-256h-1024v-256h1280v-256h-1792zM768 1536h256v256h-256v-256z" />
<glyph unicode="&#xcb;" d="M0 256v1280h1792v-256h-1280v-256h1024v-256h-1024v-256h1280v-256h-1792zM256 1792v256h512v-256h-512zM1024 1792v256h512v-256h-512z" />
<glyph unicode="&#xcc;" d="M256 256v256h512v768h-512v256h768v256h256v-256h512v-256h-512v-768h512v-256h-1536zM768 1792v256h256v-256h-256z" />
<glyph unicode="&#xcd;" d="M256 256v256h512v768h-512v256h512v256h256v-256h768v-256h-512v-768h512v-256h-1536zM1024 1792v256h256v-256h-256z" />
<glyph unicode="&#xce;" d="M256 256v256h512v768h-512v256h256v256h256v256h512v-256h256v-256h256v-256h-512v-768h512v-256h-1536z" />
<glyph unicode="&#xcf;" d="M256 256v256h512v768h-512v256h1536v-256h-512v-768h512v-256h-1536zM256 1792v256h512v-256h-512zM1280 1792v256h512v-256h-512z" />
<glyph unicode="&#xd0;" d="M0 1024v256h256v768h1024v-256h256v-256h256v-768h-256v-256h-256v-256h-1024v768h-256zM768 512h256v256h256v768h-256v256h-256v-512h256v-256h-256v-512z" />
<glyph unicode="&#xd1;" d="M0 256v1280h256v256h256v-256h256v-256h256v-256h256v512h512v-1280h-768v256h-256v256h-256v-512h-512zM512 1792v256h512v-256h256v-256h-512v256h-256zM1280 1792v256h256v-256h-256z" />
<glyph unicode="&#xd2;" d="M0 512v768h256v256h512v256h256v-256h512v-256h256v-768h-256v-256h-1280v256h-256zM512 512h768v768h-768v-768zM512 1792v256h256v-256h-256z" />
<glyph unicode="&#xd3;" d="M0 512v768h256v256h512v256h256v-256h512v-256h256v-768h-256v-256h-1280v256h-256zM512 512h768v768h-768v-768zM1024 1792v256h256v-256h-256z" />
<glyph unicode="&#xd4;" d="M0 512v768h256v512h256v256h768v-256h256v-512h256v-768h-256v-256h-1280v256h-256zM512 512h768v768h-768v-768zM768 1536h256v256h-256v-256z" />
<glyph unicode="&#xd5;" d="M0 512v768h256v512h256v256h512v-256h256v256h256v-256h-256v-256h256v-256h256v-768h-256v-256h-1280v256h-256zM512 512h768v768h-768v-768zM512 1536h256v256h-256v-256z" />
<glyph unicode="&#xd6;" d="M0 512v768h256v256h1280v-256h256v-768h-256v-256h-1280v256h-256zM256 1792v256h512v-256h-512zM512 512h768v768h-768v-768zM1024 1792v256h512v-256h-512z" />
<glyph unicode="&#xd7;" d="M256 512v256h256v-256h-256zM256 1536v256h256v-256h-256zM512 768v256h256v-256h-256zM512 1280v256h256v-256h-256zM768 1024v256h256v-256h-256zM1024 768v256h256v-256h-256zM1024 1280v256h256v-256h-256zM1280 512v256h256v-256h-256zM1280 1536v256h256v-256h-256 z" />
<glyph unicode="&#xd8;" d="M0 512v1280h256v256h1280v-256h256v-1280h-256v-256h-1280v256h-256zM512 512h768v768h-256v256h256v256h-768v-768h256v-256h-256v-256zM768 1024v256h256v-256h-256z" />
<glyph unicode="&#xd9;" d="M0 512v1024h512v-1024h768v1024h512v-1024h-256v-256h-1280v256h-256zM512 1792v256h256v-256h-256zM768 1536v256h256v-256h-256z" />
<glyph unicode="&#xda;" d="M0 512v1024h512v-1024h768v1024h512v-1024h-256v-256h-1280v256h-256zM768 1536v256h256v-256h-256zM1024 1792v256h256v-256h-256z" />
<glyph unicode="&#xdb;" d="M0 512v768h512v-768h768v768h512v-768h-256v-256h-1280v256h-256zM256 1536v256h256v256h768v-256h256v-256h-512v256h-256v-256h-512z" />
<glyph unicode="&#xdc;" d="M0 512v1024h512v-1024h768v1024h512v-1024h-256v-256h-1280v256h-256zM256 1792v256h512v-256h-512zM1024 1792v256h512v-256h-512z" />
<glyph unicode="&#xdd;" d="M256 1024v512h512v-512h512v512h512v-512h-256v-256h-256v-512h-512v512h-256v256h-256zM768 1536v256h256v-256h-256zM1024 1792v256h256v-256h-256z" />
<glyph unicode="&#xde;" d="M0 256v1792h512v-256h1024v-256h256v-768h-256v-256h-1024v-256h-512zM512 768h768v768h-768v-768z" />
<glyph unicode="&#xdf;" d="M256 256v1536h256v256h1024v-256h256v-512h-256v-256h256v-512h-256v-256h-512v256h256v512h-256v256h256v512h-512v-1024h256v-256h-256v-256h-512z" />
<glyph unicode="&#xe0;" d="M0 512v256h256v256h1024v256h-1024v256h512v256h256v-256h512v-256h256v-1024h-1536v256h-256zM512 512h768v256h-768v-256zM512 1792v256h256v-256h-256z" />
<glyph unicode="&#xe1;" d="M0 512v256h256v256h1024v256h-1024v256h512v256h256v-256h512v-256h256v-1024h-1536v256h-256zM512 512h768v256h-768v-256zM1024 1792v256h256v-256h-256z" />
<glyph unicode="&#xe2;" d="M0 512v256h256v256h1024v256h-1024v512h256v256h768v-256h256v-512h256v-1024h-1536v256h-256zM512 512h768v256h-768v-256zM768 1536h256v256h-256v-256z" />
<glyph unicode="&#xe3;" d="M0 512v256h256v256h1024v256h-1024v512h256v256h512v-256h256v256h256v-256h-256v-256h256v-256h256v-1024h-1536v256h-256zM512 512h768v256h-768v-256zM512 1536h256v256h-256v-256z" />
<glyph unicode="&#xe4;" d="M0 512v256h256v256h1024v256h-1024v256h1280v-256h256v-1024h-1536v256h-256zM256 1792v256h512v-256h-512zM512 512h768v256h-768v-256zM1024 1792v256h512v-256h-512z" />
<glyph unicode="&#xe5;" d="M0 512v256h256v256h1024v256h-1024v256h256v256h256v256h256v-256h256v-256h256v-256h256v-1024h-1536v256h-256zM512 512h768v256h-768v-256zM768 1536h256v256h-256v-256z" />
<glyph unicode="&#xe6;" d="M0 512v256h256v256h512v256h-512v256h1280v-256h256v-512h-768v-256h512v-256h-1280v256h-256zM512 512h256v256h-256v-256zM1024 1024h256v256h-256v-256z" />
<glyph unicode="&#xe7;" d="M0 768v512h256v256h1536v-256h-1280v-512h1280v-256h-512v-256h-256v256h-768v256h-256zM512 0v256h512v-256h-512z" />
<glyph unicode="&#xe8;" d="M0 512v768h256v256h512v256h256v-256h512v-256h256v-512h-1280v-256h1024v-256h-1280v256h-256zM512 1024h768v256h-768v-256zM512 1792v256h256v-256h-256z" />
<glyph unicode="&#xe9;" d="M0 512v768h256v256h512v256h256v-256h512v-256h256v-512h-1280v-256h1024v-256h-1280v256h-256zM512 1024h768v256h-768v-256zM1024 1792v256h256v-256h-256z" />
<glyph unicode="&#xea;" d="M0 512v768h256v512h256v256h768v-256h256v-512h256v-512h-1280v-256h1024v-256h-1280v256h-256zM512 1024h768v256h-768v-256zM768 1536h256v256h-256v-256z" />
<glyph unicode="&#xeb;" d="M0 512v768h256v256h1280v-256h256v-512h-1280v-256h1024v-256h-1280v256h-256zM256 1792v256h512v-256h-512zM512 1024h768v256h-768v-256zM1024 1792v256h512v-256h-512z" />
<glyph unicode="&#xec;" d="M256 256v256h512v512h-256v256h768v-768h512v-256h-1536zM512 1792v256h256v-256h-256zM768 1536v256h256v-256h-256z" />
<glyph unicode="&#xed;" d="M256 256v256h512v512h-256v256h768v-768h512v-256h-1536zM768 1536v256h256v-256h-256zM1024 1792v256h256v-256h-256z" />
<glyph unicode="&#xee;" d="M256 256v256h512v512h-256v256h768v-768h512v-256h-1536zM256 1536v256h256v256h768v-256h256v-256h-512v256h-256v-256h-512z" />
<glyph unicode="&#xef;" d="M256 256v256h512v768h-256v256h768v-1024h512v-256h-1536zM256 1792v256h512v-256h-512zM1024 1792v256h512v-256h-512z" />
<glyph unicode="&#xf0;" d="M0 512v512h256v256h512v256h-512v512h512v-256h512v-512h256v-256h256v-512h-256v-256h-1280v256h-256zM0 1280v256h256v-256h-256zM512 512h768v512h-768v-512zM1280 1792v256h256v-256h-256z" />
<glyph unicode="&#xf1;" d="M0 256v1280h256v256h256v256h512v-256h256v256h256v-256h-256v-256h256v-256h256v-1024h-512v1024h-768v-1024h-512zM512 1536h256v256h-256v-256z" />
<glyph unicode="&#xf2;" d="M0 512v768h256v256h512v256h256v-256h512v-256h256v-768h-256v-256h-1280v256h-256zM512 512h768v768h-768v-768zM512 1792v256h256v-256h-256z" />
<glyph unicode="&#xf3;" d="M0 512v768h256v256h512v256h256v-256h512v-256h256v-768h-256v-256h-1280v256h-256zM512 512h768v768h-768v-768zM1024 1792v256h256v-256h-256z" />
<glyph unicode="&#xf4;" d="M0 512v768h256v512h256v256h768v-256h256v-512h256v-768h-256v-256h-1280v256h-256zM512 512h768v768h-768v-768zM768 1536h256v256h-256v-256z" />
<glyph unicode="&#xf5;" d="M0 512v768h256v512h256v256h512v-256h256v256h256v-256h-256v-256h256v-256h256v-768h-256v-256h-1280v256h-256zM512 512h768v768h-768v-768zM512 1536h256v256h-256v-256z" />
<glyph unicode="&#xf6;" d="M0 512v768h256v256h1280v-256h256v-768h-256v-256h-1280v256h-256zM256 1792v256h512v-256h-512zM512 512h768v768h-768v-768zM1024 1792v256h512v-256h-512z" />
<glyph unicode="&#xf7;" d="M256 1024v256h1536v-256h-1536zM768 512v256h512v-256h-512zM768 1536v256h512v-256h-512z" />
<glyph unicode="&#xf8;" d="M0 512v768h256v256h1280v-256h256v-768h-256v-256h-1280v256h-256zM512 768h256v-256h512v512h-256v256h-512v-512zM768 768v256h256v-256h-256z" />
<glyph unicode="&#xf9;" d="M0 512v1024h512v-1024h768v1024h512v-1280h-1536v256h-256zM512 1792v256h256v-256h-256zM768 1536v256h256v-256h-256z" />
<glyph unicode="&#xfa;" d="M0 512v1024h512v-1024h768v1024h512v-1280h-1536v256h-256zM768 1536v256h256v-256h-256zM1024 1792v256h256v-256h-256z" />
<glyph unicode="&#xfb;" d="M0 512v768h512v-768h768v768h512v-1024h-1536v256h-256zM256 1536v256h256v256h768v-256h256v-256h-512v256h-256v-256h-512z" />
<glyph unicode="&#xfc;" d="M0 512v1024h512v-1024h768v1024h512v-1280h-1536v256h-256zM256 1792v256h512v-256h-512zM1024 1792v256h512v-256h-512z" />
<glyph unicode="&#xfd;" d="M0 768v768h512v-768h768v768h512v-1280h-256v-256h-1280v256h1024v256h-1024v256h-256zM768 1536v256h256v-256h-256zM1024 1792v256h256v-256h-256z" />
<glyph unicode="&#xfe;" d="M0 0v2048h512v-512h1024v-256h256v-512h-256v-256h-1024v-512h-512zM512 768h768v512h-768v-512z" />
<glyph unicode="&#xff;" d="M0 768v768h512v-768h768v768h512v-1280h-256v-256h-1280v256h1024v256h-1024v256h-256zM256 1792v256h512v-256h-512zM1024 1792v256h512v-256h-512z" />
<glyph unicode="&#x100;" d="M0 256v768h256v256h256v256h768v-256h256v-256h256v-768h-512v256h-768v-256h-512zM256 1792v256h1280v-256h-1280zM512 768h768v256h-256v256h-256v-256h-256v-256z" />
<glyph unicode="&#x101;" d="M0 512v256h256v256h1024v256h-1024v256h1280v-256h256v-1024h-1536v256h-256zM256 1792v256h1280v-256h-1280zM512 512h768v256h-768v-256z" />
<glyph unicode="&#x102;" d="M0 256v768h256v256h256v512h768v-512h256v-256h256v-768h-512v256h-768v-256h-512zM256 1792v256h256v-256h-256zM512 768h768v256h-256v256h-256v-256h-256v-256zM1280 1792v256h256v-256h-256z" />
<glyph unicode="&#x103;" d="M0 512v256h256v256h1024v256h-1024v256h256v256h768v-256h256v-256h256v-1024h-1536v256h-256zM256 1792v256h256v-256h-256zM512 512h768v256h-768v-256zM1280 1792v256h256v-256h-256z" />
<glyph unicode="&#x104;" d="M0 768v768h256v256h256v256h768v-256h256v-256h256v-768h-256v-256h-256v512h-768v-256h-512zM512 1280h768v256h-256v256h-256v-256h-256v-256zM1024 256v256h256v-256h-256zM1280 0v256h512v-256h-512z" />
<glyph unicode="&#x105;" d="M0 1024v256h256v256h1024v256h-1024v256h1280v-256h256v-1024h-768v-256h-256v256h-512v256h-256zM512 256v256h256v-256h-256zM512 1024h768v256h-768v-256zM768 0v256h512v-256h-512z" />
<glyph unicode="&#x106;" d="M0 768v256h256v256h256v256h256v256h256v-256h512v-256h256v-256h-512v256h-512v-256h-256v-256h256v-256h512v256h512v-256h-256v-256h-1024v256h-256v256h-256zM1024 1792v256h256v-256h-256z" />
<glyph unicode="&#x107;" d="M0 512v768h256v256h512v256h256v-256h768v-256h-1280v-768h1280v-256h-1536v256h-256zM1024 1792v256h256v-256h-256z" />
<glyph unicode="&#x108;" d="M0 768v256h256v256h256v256h-256v256h256v256h768v-256h256v-512h256v-256h-512v256h-512v-256h-256v-256h256v-256h512v256h512v-256h-256v-256h-1024v256h-256v256h-256zM768 1536h256v256h-256v-256z" />
<glyph unicode="&#x109;" d="M0 512v768h256v512h256v256h768v-256h256v-256h256v-256h-1280v-768h1280v-256h-1536v256h-256zM768 1536h256v256h-256v-256z" />
<glyph unicode="&#x10a;" d="M0 768v256h256v256h256v256h1024v-256h256v-256h-512v256h-512v-256h-256v-256h256v-256h512v256h512v-256h-256v-256h-1024v256h-256v256h-256zM768 1792v256h512v-256h-512z" />
<glyph unicode="&#x10b;" d="M0 512v768h256v256h1536v-256h-1280v-768h1280v-256h-1536v256h-256zM768 1792v256h512v-256h-512z" />
<glyph unicode="&#x10c;" d="M0 768v256h256v256h256v512h-256v256h512v-256h512v256h512v-256h-256v-512h256v-256h-512v256h-512v-256h-256v-256h256v-256h512v256h512v-256h-256v-256h-1024v256h-256v256h-256z" />
<glyph unicode="&#x10d;" d="M0 512v768h256v256h256v256h-256v256h512v-256h256v256h512v-256h-256v-256h512v-256h-1280v-768h1280v-256h-1536v256h-256z" />
<glyph unicode="&#x10e;" d="M0 256v1280h512v256h-256v256h512v-256h256v256h512v-256h-256v-512h256v-256h256v-256h-256v-256h-256v-256h-1280zM512 512h512v256h256v256h-256v256h-512v-768z" />
<glyph unicode="&#x10f;" d="M0 512v768h256v256h512v512h512v-1792h-1024v256h-256zM512 512h256v768h-256v-768zM1536 1280v768h512v-512h-256v-256h-256z" />
<glyph unicode="&#x110;" d="M0 1024v256h256v768h1024v-256h256v-256h256v-768h-256v-256h-256v-256h-1024v768h-256zM768 512h256v256h256v768h-256v256h-256v-512h256v-256h-256v-512z" />
<glyph unicode="&#x111;" d="M0 512v768h256v256h512v256h256v256h512v-256h256v-256h-256v-1280h-1280v256h-256zM512 512h512v768h-512v-768z" />
<glyph unicode="&#x112;" d="M0 256v1280h1792v-256h-1280v-256h1024v-256h-1024v-256h1280v-256h-1792zM256 1792v256h1280v-256h-1280z" />
<glyph unicode="&#x113;" d="M0 512v768h256v256h1280v-256h256v-512h-1280v-256h1024v-256h-1280v256h-256zM256 1792v256h1280v-256h-1280zM512 1024h768v256h-768v-256z" />
<glyph unicode="&#x114;" d="M0 256v1280h512v256h768v-256h512v-256h-1280v-256h1024v-256h-1024v-256h1280v-256h-1792zM256 1792v256h256v-256h-256zM1280 1792v256h256v-256h-256z" />
<glyph unicode="&#x115;" d="M0 512v768h256v256h256v256h768v-256h256v-256h256v-512h-1280v-256h1024v-256h-1280v256h-256zM256 1792v256h256v-256h-256zM512 1024h768v256h-768v-256zM1280 1792v256h256v-256h-256z" />
<glyph unicode="&#x116;" d="M0 256v1280h1792v-256h-1280v-256h1024v-256h-1024v-256h1280v-256h-1792zM768 1792v256h512v-256h-512z" />
<glyph unicode="&#x117;" d="M0 512v768h256v256h1280v-256h256v-512h-1280v-256h1024v-256h-1280v256h-256zM512 1024h768v256h-768v-256zM768 1792v256h512v-256h-512z" />
<glyph unicode="&#x118;" d="M0 768v1280h1792v-256h-1280v-256h1024v-256h-1024v-256h1280v-256h-768v-256h-256v256h-768zM512 256v256h256v-256h-256zM768 0v256h512v-256h-512z" />
<glyph unicode="&#x119;" d="M0 1024v768h256v256h1280v-256h256v-512h-1280v-256h1024v-256h-512v-256h-256v256h-512v256h-256zM512 256v256h256v-256h-256zM512 1536h768v256h-768v-256zM768 0v256h512v-256h-512z" />
<glyph unicode="&#x11a;" d="M0 256v1280h512v256h-256v256h512v-256h256v256h512v-256h-256v-256h512v-256h-1280v-256h1024v-256h-1024v-256h1280v-256h-1792z" />
<glyph unicode="&#x11b;" d="M0 512v768h256v256h256v256h-256v256h512v-256h256v256h512v-256h-256v-256h256v-256h256v-512h-1280v-256h1024v-256h-1280v256h-256zM512 1024h768v256h-768v-256z" />
<glyph unicode="&#x11c;" d="M0 512v768h256v512h256v256h768v-256h256v-256h256v-256h-1280v-768h768v256h-256v256h768v-768h-1536v256h-256zM768 1536h256v256h-256v-256z" />
<glyph unicode="&#x11d;" d="M0 768v512h256v512h256v256h768v-256h256v-256h256v-1280h-256v-256h-1280v256h1024v256h-1024v256h-256zM512 768h768v512h-768v-512zM768 1536h256v256h-256v-256z" />
<glyph unicode="&#x11e;" d="M0 512v768h256v256h256v256h768v-256h512v-256h-1280v-768h768v256h-256v256h768v-768h-1536v256h-256zM256 1792v256h256v-256h-256zM1280 1792v256h256v-256h-256z" />
<glyph unicode="&#x11f;" d="M0 768v512h256v256h256v256h768v-256h512v-1280h-256v-256h-1280v256h1024v256h-1024v256h-256zM256 1792v256h256v-256h-256zM512 768h768v512h-768v-512zM1280 1792v256h256v-256h-256z" />
<glyph unicode="&#x120;" d="M0 512v768h256v256h1536v-256h-1280v-768h768v256h-256v256h768v-768h-1536v256h-256zM768 1792v256h512v-256h-512z" />
<glyph unicode="&#x121;" d="M0 768v512h256v256h1536v-1280h-256v-256h-1280v256h1024v256h-1024v256h-256zM512 768h768v512h-768v-512zM768 1792v256h512v-256h-512z" />
<glyph unicode="&#x122;" d="M0 1024v512h256v256h256v256h1280v-256h-1024v-256h-256v-512h256v-256h512v256h-256v256h768v-768h-512v-256h-256v-256h-512v256h256v256h-256v256h-256v256h-256z" />
<glyph unicode="&#x123;" d="M0 768v512h256v256h256v256h256v256h512v-256h-256v-256h768v-1280h-256v-256h-1280v256h1024v256h-1024v256h-256zM512 768h768v512h-768v-512z" />
<glyph unicode="&#x124;" d="M0 256v1536h512v256h768v-256h512v-1536h-512v512h-768v-512h-512zM512 1024h768v512h-256v256h-256v-256h-256v-512z" />
<glyph unicode="&#x125;" d="M0 256v1536h512v256h768v-256h256v-256h-512v256h-256v-256h-256v-256h1024v-256h256v-768h-512v768h-768v-768h-512z" />
<glyph unicode="&#x126;" d="M0 256v1792h512v-256h768v256h512v-1792h-512v768h-768v-768h-512zM512 1280h768v256h-768v-256z" />
<glyph unicode="&#x127;" d="M0 1536v256h256v256h512v-256h512v-256h-512v-256h768v-256h256v-768h-512v768h-512v-768h-512v1280h-256z" />
<glyph unicode="&#x128;" d="M256 256v256h512v768h-512v512h256v-256h512v256h512v-256h256v-256h-512v-768h512v-256h-1536zM512 1792v256h512v-256h-512zM1536 1792v256h256v-256h-256z" />
<glyph unicode="&#x129;" d="M256 256v256h512v512h-256v256h768v-768h512v-256h-1536zM256 1536v256h256v-256h-256zM512 1792v256h512v-256h-512zM1024 1536v256h512v-256h-512zM1536 1792v256h256v-256h-256z" />
<glyph unicode="&#x12a;" d="M256 256v256h512v768h-512v256h1536v-256h-512v-768h512v-256h-1536zM256 1792v256h1536v-256h-1536z" />
<glyph unicode="&#x12b;" d="M256 256v256h512v768h-256v256h768v-1024h512v-256h-1536zM256 1792v256h1280v-256h-1280z" />
<glyph unicode="&#x12c;" d="M256 256v256h512v768h-512v256h512v256h512v-256h512v-256h-512v-768h512v-256h-1536zM512 1792v256h256v-256h-256zM1280 1792v256h256v-256h-256z" />
<glyph unicode="&#x12d;" d="M256 256v256h512v512h-256v256h768v-768h512v-256h-1536zM256 1792v256h256v-256h-256zM512 1536v256h768v-256h-768zM1280 1792v256h256v-256h-256z" />
<glyph unicode="&#x12e;" d="M256 768v256h512v768h-512v256h1536v-256h-512v-768h512v-256h-768v-256h-256v256h-512zM512 256v256h256v-256h-256zM768 0v256h512v-256h-512z" />
<glyph unicode="&#x12f;" d="M256 768v256h512v256h-256v256h768v-512h512v-256h-768v-256h-256v256h-512zM512 256v256h256v-256h-256zM768 0v256h512v-256h-512zM768 1792v256h512v-256h-512z" />
<glyph unicode="&#x130;" d="M256 256v256h512v768h-512v256h1536v-256h-512v-768h512v-256h-1536zM768 1792v256h512v-256h-512z" />
<glyph unicode="&#x131;" d="M256 256v256h512v768h-256v256h768v-1024h512v-256h-1536z" />
<glyph unicode="&#x132;" d="M0 768v256h256v768h-256v256h1024v-256h-256v-768h256v-256h-1024zM256 256v256h1024v1536h512v-1536h-256v-256h-1280z" />
<glyph unicode="&#x133;" d="M0 1280v256h768v-1024h-512v768h-256zM256 1792v256h512v-256h-512zM512 0v256h768v1024h-256v256h768v-1280h-256v-256h-1024zM1280 1792v256h512v-256h-512z" />
<glyph unicode="&#x134;" d="M0 512v256h512v-256h768v1280h-256v-256h-512v256h256v256h768v-256h256v-1280h-256v-256h-1280v256h-256z" />
<glyph unicode="&#x135;" d="M256 0v256h768v768h-256v256h768v-1024h-256v-256h-1024zM512 1536v256h256v256h768v-256h256v-256h-512v256h-256v-256h-512z" />
<glyph unicode="&#x136;" d="M0 512v1536h512v-512h256v256h256v256h512v-256h-256v-256h-256v-256h256v-256h256v-256h256v-256h-768v-256h-256v-256h-512v256h256v256h-512zM512 512h512v256h-256v256h-256v-512z" />
<glyph unicode="&#x137;" d="M0 512v1536h512v-768h512v256h256v256h512v-256h-256v-256h-256v-256h256v-256h256v-256h-512v256h-256v256h-512v-512h-512zM256 0v256h256v256h512v-256h-256v-256h-512z" />
<glyph unicode="&#x138;" d="M0 256v1280h512v-512h512v256h256v256h512v-256h-256v-256h-256v-256h256v-256h256v-256h-512v256h-256v256h-512v-512h-512z" />
<glyph unicode="&#x139;" d="M256 256v1536h768v-256h-256v-1024h1024v-256h-1536zM1024 1792v256h256v-256h-256z" />
<glyph unicode="&#x13a;" d="M0 256v256h512v768h-256v256h256v256h256v-256h256v-1024h512v-256h-1536zM768 1792v256h256v-256h-256z" />
<glyph unicode="&#x13b;" d="M256 512v1536h512v-1280h1024v-256h-512v-256h-256v-256h-512v256h256v256h-512z" />
<glyph unicode="&#x13c;" d="M256 512v256h512v1024h-256v256h768v-1280h512v-256h-512v-256h-256v-256h-512v256h256v256h-512z" />
<glyph unicode="&#x13d;" d="M256 256v1792h512v-1536h1024v-256h-1536zM1280 1280v768h512v-512h-256v-256h-256z" />
<glyph unicode="&#x13e;" d="M0 256v256h512v1280h-256v256h768v-1536h512v-256h-1536zM1280 1280v768h512v-512h-256v-256h-256z" />
<glyph unicode="&#x13f;" d="M256 256v1792h512v-1536h1024v-256h-1536zM1024 1024v512h512v-512h-512z" />
<glyph unicode="&#x140;" d="M0 256v256h512v1280h-256v256h768v-1536h512v-256h-1536zM1280 1024v512h512v-512h-512z" />
<glyph unicode="&#x141;" d="M0 1024v256h256v768h512v-512h256v-256h-256v-768h1024v-256h-1536v768h-256z" />
<glyph unicode="&#x142;" d="M256 256v256h512v512h-256v256h256v512h-256v256h768v-512h256v-256h-256v-768h512v-256h-1536z" />
<glyph unicode="&#x143;" d="M0 256v1280h768v-256h256v-256h256v512h512v-1280h-768v256h-256v256h-256v-512h-512zM768 1536v256h256v-256h-256zM1024 1792v256h256v-256h-256z" />
<glyph unicode="&#x144;" d="M0 256v1280h768v256h256v-256h512v-256h256v-1024h-512v1024h-768v-1024h-512zM1024 1792v256h256v-256h-256z" />
<glyph unicode="&#x145;" d="M0 512v1536h768v-256h256v-256h256v512h512v-1536h-512v256h-256v256h-256v256h-256v-768h-512zM512 0v256h256v256h512v-256h-256v-256h-512z" />
<glyph unicode="&#x146;" d="M0 512v1280h1536v-256h256v-1024h-512v1024h-768v-1024h-512zM512 0v256h256v256h512v-256h-256v-256h-512z" />
<glyph unicode="&#x147;" d="M0 256v1280h512v256h-256v256h512v-256h256v256h512v-256h-256v-256h-512v-256h256v-256h256v512h512v-1280h-768v256h-256v256h-256v-512h-512z" />
<glyph unicode="&#x148;" d="M0 256v1280h512v256h-256v256h512v-256h256v256h512v-256h-256v-256h256v-256h256v-1024h-512v1024h-768v-1024h-512z" />
<glyph unicode="&#x14a;" d="M0 512v1536h768v-256h256v-256h256v512h512v-1792h-256v-256h-1024v256h768v512h-256v256h-256v256h-256v-768h-512z" />
<glyph unicode="&#x14b;" d="M0 512v1280h1536v-256h256v-1280h-256v-256h-1024v256h768v1280h-768v-1024h-512z" />
<glyph unicode="&#x14c;" d="M0 512v768h256v256h1280v-256h256v-768h-256v-256h-1280v256h-256zM256 1792v256h1280v-256h-1280zM512 512h768v768h-768v-768z" />
<glyph unicode="&#x14d;" d="M0 512v768h256v256h1280v-256h256v-768h-256v-256h-1280v256h-256zM256 1792v256h1280v-256h-1280zM512 512h768v768h-768v-768z" />
<glyph unicode="&#x14e;" d="M0 512v768h256v256h256v256h768v-256h256v-256h256v-768h-256v-256h-1280v256h-256zM256 1792v256h256v-256h-256zM512 512h768v768h-768v-768zM1280 1792v256h256v-256h-256z" />
<glyph unicode="&#x14f;" d="M0 512v768h256v256h256v256h768v-256h256v-256h256v-768h-256v-256h-1280v256h-256zM256 1792v256h256v-256h-256zM512 512h768v768h-768v-768zM1280 1792v256h256v-256h-256z" />
<glyph unicode="&#x150;" d="M0 512v768h256v512h256v-256h512v256h256v-256h256v-256h256v-768h-256v-256h-1280v256h-256zM512 512h768v768h-768v-768zM512 1792v256h256v-256h-256zM1280 1792v256h256v-256h-256z" />
<glyph unicode="&#x151;" d="M0 512v768h256v512h256v-256h512v256h256v-256h256v-256h256v-768h-256v-256h-1280v256h-256zM512 512h768v768h-768v-768zM512 1792v256h256v-256h-256zM1280 1792v256h256v-256h-256z" />
<glyph unicode="&#x152;" d="M0 512v1280h256v256h1536v-256h-512v-512h512v-256h-512v-512h512v-256h-1536v256h-256zM512 512h256v1280h-256v-1280z" />
<glyph unicode="&#x153;" d="M0 512v768h256v256h1280v-256h256v-512h-768v-256h512v-256h-1280v256h-256zM512 512h256v768h-256v-768zM1024 1024h256v256h-256v-256z" />
<glyph unicode="&#x154;" d="M0 256v1280h768v256h256v-256h512v-256h256v-256h-512v-256h256v-256h256v-256h-768v256h-256v256h-256v-512h-512zM512 1024h512v256h-512v-256zM1024 1792v256h256v-256h-256z" />
<glyph unicode="&#x155;" d="M256 256v1280h512v-256h256v-256h-256v-768h-512zM768 1536v256h256v-256h-256zM1024 1280v256h768v-256h-768zM1024 1792v256h256v-256h-256z" />
<glyph unicode="&#x156;" d="M0 512v1536h1536v-256h256v-512h-512v-256h256v-256h256v-256h-512v-256h-256v-256h-512v256h256v256h256v256h-256v256h-256v-512h-512zM512 1280h512v256h256v256h-768v-512z" />
<glyph unicode="&#x157;" d="M256 0v256h256v256h-256v1280h512v-256h256v-256h-256v-768h256v-256h-256v-256h-512zM1024 1536v256h768v-256h-768z" />
<glyph unicode="&#x158;" d="M0 256v1280h768v256h256v-256h512v-256h256v-256h-512v-256h256v-256h256v-256h-768v256h-256v256h-256v-512h-512zM512 1024h512v256h-512v-256zM512 1792v256h256v-256h-256zM1024 1792v256h256v-256h-256z" />
<glyph unicode="&#x159;" d="M256 256v1280h512v256h-256v256h512v-256h256v256h512v-256h-256v-256h256v-256h-768v-256h-256v-768h-512zM768 1280h256v256h-256v-256z" />
<glyph unicode="&#x15a;" d="M0 256v256h1280v256h-1024v256h-256v256h256v256h512v256h256v-256h512v-256h-1024v-256h1024v-256h256v-256h-256v-256h-1536zM1024 1792v256h256v-256h-256z" />
<glyph unicode="&#x15b;" d="M0 256v256h1280v256h-1024v256h-256v256h256v256h512v256h256v-256h512v-256h-1024v-256h1024v-256h256v-256h-256v-256h-1536zM1024 1792v256h256v-256h-256z" />
<glyph unicode="&#x15c;" d="M0 256v256h1280v256h-1024v256h-256v256h256v512h256v256h768v-256h256v-512h-1024v-256h1024v-256h256v-256h-256v-256h-1536zM768 1536h256v256h-256v-256z" />
<glyph unicode="&#x15d;" d="M0 256v256h1280v256h-1024v256h-256v256h256v512h256v256h768v-256h256v-512h-1024v-256h1024v-256h256v-256h-256v-256h-1536zM768 1536h256v256h-256v-256z" />
<glyph unicode="&#x15e;" d="M0 768v256h512v-256h768v512h-1024v256h-256v256h256v256h1280v-256h-1024v-256h1024v-256h256v-512h-256v-256h-256v-256h-256v256h-768v256h-256zM512 0v256h512v-256h-512z" />
<glyph unicode="&#x15f;" d="M0 512v256h1280v256h-1024v256h-256v256h256v256h1280v-256h-1024v-256h1024v-256h256v-256h-256v-256h-256v-256h-256v256h-1024zM512 0v256h512v-256h-512z" />
<glyph unicode="&#x160;" d="M0 256v256h1280v256h-1024v256h-256v256h256v256h256v256h-256v256h512v-256h256v256h512v-256h-256v-256h256v-256h-1024v-256h1024v-256h256v-256h-256v-256h-1536z" />
<glyph unicode="&#x161;" d="M0 256v256h1280v256h-1024v256h-256v256h256v256h256v256h-256v256h512v-256h256v256h512v-256h-256v-256h256v-256h-1024v-256h1024v-256h256v-256h-256v-256h-1536z" />
<glyph unicode="&#x164;" d="M256 1280v256h512v256h512v-256h512v-256h-512v-1024h-512v1024h-512zM512 1792v256h256v-256h-256zM1280 1792v256h256v-256h-256z" />
<glyph unicode="&#x165;" d="M256 1024v256h512v512h512v-512h512v-256h-512v-768h-512v768h-512zM512 1792v256h256v-256h-256zM1280 1792v256h256v-256h-256z" />
<glyph unicode="&#x166;" d="M256 1792v256h1536v-256h-512v-512h256v-256h-256v-768h-512v512h-256v256h256v768h-512z" />
<glyph unicode="&#x167;" d="M256 1280v256h512v512h512v-512h512v-256h-512v-256h256v-256h-256v-512h-512v256h-256v256h256v512h-512z" />
<glyph unicode="&#x168;" d="M0 512v1024h256v256h256v-1280h768v1024h512v-1024h-256v-256h-1280v256h-256zM512 1792v256h512v-256h256v-256h-512v256h-256zM1280 1792v256h256v-256h-256z" />
<glyph unicode="&#x169;" d="M0 512v1024h256v256h256v-1280h768v1024h512v-1280h-1536v256h-256zM512 1792v256h512v-256h256v-256h-512v256h-256zM1280 1792v256h256v-256h-256z" />
<glyph unicode="&#x16a;" d="M0 512v1024h512v-1024h768v1024h512v-1024h-256v-256h-1280v256h-256zM256 1792v256h1280v-256h-1280z" />
<glyph unicode="&#x16b;" d="M0 512v1024h512v-1024h768v1024h512v-1280h-1536v256h-256zM256 1792v256h1280v-256h-1280z" />
<glyph unicode="&#x16c;" d="M0 512v1024h512v-1024h768v1024h512v-1024h-256v-256h-1280v256h-256zM256 1792v256h256v-256h-256zM512 1536v256h768v-256h-768zM1280 1792v256h256v-256h-256z" />
<glyph unicode="&#x16d;" d="M0 512v1024h512v-1024h768v1024h512v-1280h-1536v256h-256zM256 1792v256h256v-256h-256zM512 1536v256h768v-256h-768zM1280 1792v256h256v-256h-256z" />
<glyph unicode="&#x16e;" d="M0 512v1024h256v256h256v256h768v-256h256v-256h256v-1024h-256v-256h-1280v256h-256zM256 1280h256v-768h768v768h256v256h-256v-256h-768v256h-256v-256zM768 1536h256v256h-256v-256z" />
<glyph unicode="&#x16f;" d="M0 512v1024h256v256h256v256h768v-256h256v-256h256v-1280h-1536v256h-256zM256 1280h256v-768h768v768h256v256h-256v-256h-768v256h-256v-256zM768 1536h256v256h-256v-256z" />
<glyph unicode="&#x170;" d="M0 512v1024h256v256h256v-1280h768v1024h512v-1024h-256v-256h-1280v256h-256zM512 1792v256h256v-256h-256zM1024 1536v256h256v-256h-256zM1280 1792v256h256v-256h-256z" />
<glyph unicode="&#x171;" d="M0 512v1024h256v256h256v-1280h768v1024h512v-1280h-1536v256h-256zM512 1792v256h256v-256h-256zM1024 1536v256h256v-256h-256zM1280 1792v256h256v-256h-256z" />
<glyph unicode="&#x172;" d="M0 1024v1024h512v-1024h768v1024h512v-1024h-256v-256h-512v-256h-256v256h-512v256h-256zM512 256v256h256v-256h-256zM768 0v256h512v-256h-512z" />
<glyph unicode="&#x173;" d="M0 1024v1024h512v-1024h768v1024h512v-1280h-768v-256h-256v256h-512v256h-256zM512 256v256h256v-256h-256zM768 0v256h512v-256h-512z" />
<glyph unicode="&#x174;" d="M0 256v1280h256v256h256v256h768v-256h256v-256h256v-1280h-768v256h-256v-256h-768zM512 1024h256v256h256v-256h256v512h-256v256h-256v-256h-256v-512z" />
<glyph unicode="&#x175;" d="M0 512v768h512v-768h256v-256h-512v256h-256zM256 1536v256h256v256h768v-256h256v-256h-512v256h-256v-256h-512zM768 512v768h256v-768h-256zM1024 256v256h256v768h512v-768h-256v-256h-512z" />
<glyph unicode="&#x176;" d="M256 1024v512h256v256h256v256h512v-256h256v-256h256v-512h-256v-256h-256v-512h-512v512h-256v256h-256zM768 1024h512v768h-512v-768z" />
<glyph unicode="&#x177;" d="M0 768v512h512v-512h768v512h512v-1024h-256v-256h-1280v256h1024v256h-1024v256h-256zM256 1536v256h256v256h768v-256h256v-256h-512v256h-256v-256h-512z" />
<glyph unicode="&#x178;" d="M256 1024v512h512v-512h512v512h512v-512h-256v-256h-256v-512h-512v512h-256v256h-256zM256 1792v256h512v-256h-512zM1280 1792v256h512v-256h-512z" />
<glyph unicode="&#x179;" d="M0 256v256h256v256h256v256h256v256h-768v256h768v256h256v-256h768v-256h-256v-256h-256v-256h-256v-256h768v-256h-1792zM1024 1792v256h256v-256h-256z" />
<glyph unicode="&#x17a;" d="M0 256v256h256v256h256v256h256v256h-768v256h768v256h256v-256h768v-256h-256v-256h-256v-256h-256v-256h768v-256h-1792zM1024 1792v256h256v-256h-256z" />
<glyph unicode="&#x17b;" d="M0 256v256h256v256h256v256h256v256h-768v256h1792v-256h-256v-256h-256v-256h-256v-256h768v-256h-1792zM768 1792v256h512v-256h-512z" />
<glyph unicode="&#x17c;" d="M0 256v256h256v256h256v256h256v256h-768v256h1792v-256h-256v-256h-256v-256h-256v-256h768v-256h-1792zM768 1792v256h512v-256h-512z" />
<glyph unicode="&#x17d;" d="M0 256v256h256v256h256v256h256v256h-768v256h512v256h-256v256h512v-256h256v256h512v-256h-256v-256h512v-256h-256v-256h-256v-256h-256v-256h768v-256h-1792z" />
<glyph unicode="&#x17e;" d="M0 256v256h256v256h256v256h256v256h-768v256h512v256h-256v256h512v-256h256v256h512v-256h-256v-256h512v-256h-256v-256h-256v-256h-256v-256h768v-256h-1792z" />
<glyph unicode="&#x17f;" d="M768 256v1536h256v256h768v-256h-512v-1536h-512z" />
<glyph unicode="&#x192;" d="M256 256v256h512v768h-512v256h512v256h256v256h768v-256h-512v-256h512v-256h-512v-768h-256v-256h-768z" />
<glyph unicode="&#x21a;" d="M256 1792v256h1536v-256h-512v-1536h-256v256h-256v1280h-512zM512 0v256h512v-256h-512z" />
<glyph unicode="&#x21b;" d="M256 1280v256h512v512h512v-512h512v-256h-512v-1024h-256v256h-256v768h-512zM512 0v256h512v-256h-512z" />
<glyph unicode="&#x2bc;" d="M0 1280v768h512v-512h-256v-256h-256z" />
<glyph unicode="&#x2c6;" d="M256 1536v256h256v256h768v-256h256v-256h-512v256h-256v-256h-512z" />
<glyph unicode="&#x2c7;" d="M256 1792v256h512v-256h256v256h512v-256h-256v-256h-768v256h-256z" />
<glyph unicode="&#x2c9;" d="M256 1792v256h1280v-256h-1280z" />
<glyph unicode="&#x2ca;" d="M768 1536v256h256v-256h-256zM1024 1792v256h256v-256h-256z" />
<glyph unicode="&#x2cb;" d="M768 1792v256h256v-256h-256zM1024 1536v256h256v-256h-256z" />
<glyph unicode="&#x2d7;" d="M256 1024v256h1280v-256h-1280z" />
<glyph unicode="&#x2d8;" d="M256 1792v256h256v-256h-256zM512 1536v256h768v-256h-768zM1280 1792v256h256v-256h-256z" />
<glyph unicode="&#x2d9;" d="M768 1792v256h512v-256h-512z" />
<glyph unicode="&#x2da;" d="M256 1536v256h256v256h768v-256h256v-256h-256v-256h-768v256h-256zM768 1536h256v256h-256v-256z" />
<glyph unicode="&#x2db;" d="M512 256v256h256v-256h-256zM768 0v256h512v-256h-512zM768 512v256h256v-256h-256z" />
<glyph unicode="&#x2dc;" d="M256 1536v256h256v-256h-256zM512 1792v256h512v-256h256v-256h-512v256h-256zM1280 1792v256h256v-256h-256z" />
<glyph unicode="&#x2dd;" d="M256 1536v256h256v-256h-256zM512 1792v256h256v-256h-256zM1024 1536v256h256v-256h-256zM1280 1792v256h256v-256h-256z" />
<glyph unicode="&#x300;" horiz-adv-x="0" d="M-1454 1792v256h256v-256h-256zM-1198 1536v256h256v-256h-256z" />
<glyph unicode="&#x301;" horiz-adv-x="0" d="M-1249 1536v256h256v-256h-256zM-993 1792v256h256v-256h-256z" />
<glyph unicode="&#x326;" horiz-adv-x="0" d="M-1536 -510h256v512h512v-512h-256v-256h-512v256z" />
<glyph unicode="&#x335;" horiz-adv-x="0" d="M-1516 735v256h992v-256h-992z" />
<glyph unicode="&#x37a;" d="M768 256v256h256v-256h-256zM1024 0v256h512v-256h-512z" />
<glyph unicode="&#x37e;" d="M256 256v256h256v512h512v-512h-256v-256h-512zM512 1280v512h512v-512h-512z" />
<glyph unicode="&#x384;" d="M768 1536v256h256v-256h-256zM1024 1792v256h256v-256h-256z" />
<glyph unicode="&#x385;" d="M256 1792v256h256v-256h-256zM768 1536v256h256v-256h-256zM1024 1792v256h256v-256h-256zM1536 1792v256h256v-256h-256z" />
<glyph unicode="&#x386;" d="M0 1536v256h256v-256h-256zM256 256v1280h256v256h256v256h512v-256h256v-256h256v-1280h-512v512h-512v-512h-512zM256 1792v256h256v-256h-256zM768 1024h512v512h-512v-512z" />
<glyph unicode="&#x387;" d="M512 768v512h512v-512h-512z" />
<glyph unicode="&#x388;" d="M0 1536v256h256v-256h-256zM256 1792v256h1792v-256h-1024v-512h512v-256h-512v-512h1024v-256h-1536v1536h-256z" />
<glyph unicode="&#x389;" d="M0 1536v256h256v-256h-256zM256 1792v256h768v-768h512v768h512v-1792h-512v768h-512v-768h-512v1536h-256z" />
<glyph unicode="&#x38a;" d="M0 1536v256h256v-256h-256zM256 1792v256h256v-256h-256zM768 256v256h256v1280h-256v256h1024v-256h-256v-1280h256v-256h-1024z" />
<glyph unicode="&#x38c;" d="M0 1536v256h256v-256h-256zM256 1792v256h256v-256h-256zM512 512v1280h256v256h1024v-256h256v-1280h-256v-256h-1024v256h-256zM1024 512h512v1280h-512v-1280z" />
<glyph unicode="&#x38e;" d="M0 1536v256h256v-256h-256zM256 1792v256h768v-768h512v768h512v-768h-256v-256h-256v-768h-512v768h-256v256h-256v512h-256z" />
<glyph unicode="&#x38f;" d="M0 1536v256h256v-256h-256zM256 256v256h256v256h-256v768h256v256h256v256h768v-256h256v-256h256v-768h-256v-256h256v-256h-768v512h256v768h-256v256h-256v-256h-256v-768h256v-512h-768zM256 1792v256h256v-256h-256z" />
<glyph unicode="&#x390;" d="M0 1792v256h256v-256h-256zM256 1280v256h256v256h256v-256h256v-1024h512v-256h-768v256h-256v768h-256zM768 1792v256h256v-256h-256zM1280 1792v256h256v-256h-256z" />
<glyph unicode="&#x391;" d="M0 256v1280h256v256h256v256h768v-256h256v-256h256v-1280h-512v512h-768v-512h-512zM512 1024h768v512h-256v256h-256v-256h-256v-512z" />
<glyph unicode="&#x392;" d="M0 256v1792h1536v-256h256v-512h-256v-256h256v-512h-256v-256h-1536zM512 512h768v512h-768v-512zM512 1280h768v512h-768v-512z" />
<glyph unicode="&#x393;" d="M256 256v1792h1536v-256h-1024v-1536h-512z" />
<glyph unicode="&#x394;" d="M0 256v1280h256v256h256v256h768v-256h256v-256h256v-1280h-1792zM512 512h768v1024h-256v256h-256v-256h-256v-1024z" />
<glyph unicode="&#x395;" d="M0 256v1792h1792v-256h-1280v-512h1024v-256h-1024v-512h1280v-256h-1792z" />
<glyph unicode="&#x396;" d="M0 256v512h256v256h256v256h256v256h256v256h-1024v256h1792v-512h-256v-256h-256v-256h-256v-256h-256v-256h1024v-256h-1792z" />
<glyph unicode="&#x397;" d="M0 256v1792h512v-768h768v768h512v-1792h-512v768h-768v-768h-512z" />
<glyph unicode="&#x398;" d="M0 512v1280h256v256h1280v-256h256v-1280h-256v-256h-1280v256h-256zM512 512h768v512h-768v-512zM512 1280h768v512h-768v-512z" />
<glyph unicode="&#x399;" d="M256 256v256h512v1280h-512v256h1536v-256h-512v-1280h512v-256h-1536z" />
<glyph unicode="&#x39a;" d="M0 256v1792h512v-768h256v256h256v256h256v256h512v-256h-256v-256h-256v-256h-256v-256h256v-256h256v-256h256v-256h-768v256h-256v256h-256v-512h-512z" />
<glyph unicode="&#x39b;" d="M0 256v1280h256v256h256v256h768v-256h256v-256h256v-1280h-512v1280h-256v256h-256v-256h-256v-1280h-512z" />
<glyph unicode="&#x39c;" d="M0 256v1792h512v-256h256v-256h256v256h256v256h512v-1792h-512v1024h-256v-512h-256v512h-256v-1024h-512z" />
<glyph unicode="&#x39d;" d="M0 256v1792h512v-256h256v-256h256v-256h256v768h512v-1792h-512v512h-256v256h-256v256h-256v-1024h-512z" />
<glyph unicode="&#x39e;" d="M0 256v256h1792v-256h-1792zM0 1792v256h1792v-256h-1792zM256 1024v256h1280v-256h-1280z" />
<glyph unicode="&#x39f;" d="M0 512v1280h256v256h1280v-256h256v-1280h-256v-256h-1280v256h-256zM512 512h768v1280h-768v-1280z" />
<glyph unicode="&#x3a0;" d="M0 256v1792h1792v-1792h-512v1536h-768v-1536h-512z" />
<glyph unicode="&#x3a1;" d="M0 256v1792h1536v-256h256v-768h-256v-256h-1024v-512h-512zM512 1024h768v768h-768v-768z" />
<glyph unicode="&#x3a3;" d="M0 256v256h256v256h256v256h256v256h-256v256h-256v256h-256v256h1792v-512h-512v256h-512v-256h256v-256h512v-256h-512v-256h-256v-256h512v256h512v-512h-1792z" />
<glyph unicode="&#x3a4;" d="M256 1792v256h1536v-256h-512v-1536h-512v1536h-512z" />
<glyph unicode="&#x3a5;" d="M256 1280v768h512v-768h512v768h512v-768h-256v-256h-256v-768h-512v768h-256v256h-256z" />
<glyph unicode="&#x3a6;" d="M0 768v768h256v256h512v256h256v-256h512v-256h256v-768h-256v-256h-512v-256h-256v256h-512v256h-256zM512 768h256v768h-256v-768zM1024 768h256v768h-256v-768z" />
<glyph unicode="&#x3a7;" d="M0 256v512h256v256h256v256h-256v256h-256v512h512v-512h256v-256h256v256h256v512h512v-512h-256v-256h-256v-256h256v-256h256v-512h-512v512h-256v256h-256v-256h-256v-512h-512z" />
<glyph unicode="&#x3a8;" d="M0 1280v768h512v-768h256v768h512v-768h256v768h512v-768h-256v-256h-512v-512h256v-256h-1024v256h256v512h-512v256h-256z" />
<glyph unicode="&#x3a9;" d="M0 256v256h256v256h-256v768h256v256h256v256h768v-256h256v-256h256v-768h-256v-256h256v-256h-768v512h256v768h-256v256h-256v-256h-256v-768h256v-512h-768z" />
<glyph unicode="&#x3aa;" d="M256 256v256h512v768h-512v256h1536v-256h-512v-768h512v-256h-1536zM256 1792v256h512v-256h-512zM1280 1792v256h512v-256h-512z" />
<glyph unicode="&#x3ab;" d="M256 1024v512h512v-512h512v512h512v-512h-256v-256h-256v-512h-512v512h-256v256h-256zM256 1792v256h512v-256h-512zM1280 1792v256h512v-256h-512z" />
<glyph unicode="&#x3ac;" d="M0 512v768h256v256h512v256h256v-256h768v-1280h-1536v256h-256zM512 512h768v768h-768v-768zM1024 1792v256h256v-256h-256z" />
<glyph unicode="&#x3ad;" d="M0 512v256h256v256h-256v256h256v256h512v256h256v-256h768v-256h-1280v-256h1024v-256h-1024v-256h1280v-256h-1536v256h-256zM1024 1792v256h256v-256h-256z" />
<glyph unicode="&#x3ae;" d="M0 1280v256h512v-256h256v-1024h-512v1024h-256zM768 1280v512h256v-256h512v-256h256v-1280h-512v1280h-512zM1024 1792v256h256v-256h-256z" />
<glyph unicode="&#x3af;" d="M256 1280v256h256v256h256v-256h256v-1024h512v-256h-768v256h-256v768h-256zM768 1792v256h256v-256h-256z" />
<glyph unicode="&#x3b0;" d="M0 1280v256h512v-256h256v-768h512v768h-256v256h512v-256h256v-768h-256v-256h-1024v256h-256v768h-256zM0 1792v256h256v-256h-256zM512 1536v256h256v-256h-256zM768 1792v256h256v-256h-256zM1280 1792v256h256v-256h-256z" />
<glyph unicode="&#x3b1;" d="M0 512v768h256v256h1536v-1280h-1536v256h-256zM512 512h768v768h-768v-768z" />
<glyph unicode="&#x3b2;" d="M0 0v1792h256v256h1280v-256h256v-512h-256v-256h256v-512h-256v-256h-1024v-256h-512zM512 512h768v512h-768v-512zM512 1280h768v512h-768v-512z" />
<glyph unicode="&#x3b3;" d="M0 1280v256h512v-256h256v-512h512v768h512v-768h-256v-256h-256v-512h-512v512h-256v256h-256v512h-256z" />
<glyph unicode="&#x3b4;" d="M0 512v512h256v256h768v256h-256v256h256v256h768v-256h-512v-256h256v-256h256v-768h-256v-256h-1280v256h-256zM512 512h768v512h-768v-512z" />
<glyph unicode="&#x3b5;" d="M0 512v256h256v256h-256v256h256v256h1536v-256h-1280v-256h1024v-256h-1024v-256h1280v-256h-1536v256h-256z" />
<glyph unicode="&#x3b6;" d="M0 768v512h256v256h256v256h-256v256h1280v-256h-512v-256h-256v-256h-256v-512h1024v-256h256v-256h-256v-256h-512v256h256v256h-1024v256h-256z" />
<glyph unicode="&#x3b7;" d="M0 1280v256h512v-256h256v-1024h-512v1024h-256zM768 1280v256h768v-256h256v-1280h-512v1280h-512z" />
<glyph unicode="&#x3b8;" d="M0 768v768h256v256h256v256h768v-256h256v-256h256v-768h-256v-256h-256v-256h-768v256h-256v256h-256zM512 768h256v-256h256v256h256v256h-768v-256zM512 1280h768v256h-256v256h-256v-256h-256v-256z" />
<glyph unicode="&#x3b9;" d="M256 1280v256h768v-1024h512v-256h-768v256h-256v768h-256z" />
<glyph unicode="&#x3ba;" d="M0 256v1280h512v-512h512v256h256v256h512v-256h-256v-256h-256v-256h256v-256h256v-256h-512v256h-256v256h-512v-512h-512z" />
<glyph unicode="&#x3bb;" d="M0 256v512h256v256h256v512h-256v256h-256v256h512v-256h256v-256h256v-256h256v-256h256v-256h256v-512h-512v512h-256v256h-256v-256h-256v-512h-512z" />
<glyph unicode="&#x3bc;" d="M0 0v1536h512v-1024h512v-256h-512v-256h-512zM1024 512v1024h512v-1024h256v-256h-512v256h-256z" />
<glyph unicode="&#x3bd;" d="M0 1280v256h512v-256h256v-512h512v768h512v-768h-256v-256h-256v-256h-512v256h-256v256h-256v512h-256z" />
<glyph unicode="&#x3be;" d="M0 768v256h256v256h256v256h-256v256h-256v256h1536v-256h-768v-256h512v-256h-512v-256h-256v-256h768v-256h256v-256h-256v-256h-512v256h256v256h-768v256h-256z" />
<glyph unicode="&#x3bf;" d="M0 512v768h256v256h1280v-256h256v-768h-256v-256h-1280v256h-256zM512 512h768v768h-768v-768z" />
<glyph unicode="&#x3c0;" d="M0 256v256h256v768h-256v256h1792v-256h-256v-768h256v-256h-512v256h-256v768h-256v-1024h-768z" />
<glyph unicode="&#x3c1;" d="M0 0v1280h256v256h1280v-256h256v-512h-256v-256h-1024v-512h-512zM512 768h768v512h-768v-512z" />
<glyph unicode="&#x3c2;" d="M0 768v512h256v256h1280v-256h-1024v-512h1024v-256h256v-256h-256v-256h-1280v256h1024v256h-1024v256h-256z" />
<glyph unicode="&#x3c3;" d="M0 512v768h256v256h1536v-256h-512v-256h256v-512h-256v-256h-1024v256h-256zM512 512h512v512h-256v256h-256v-768z" />
<glyph unicode="&#x3c4;" d="M256 1280v256h1536v-256h-512v-768h512v-256h-768v256h-256v768h-512z" />
<glyph unicode="&#x3c5;" d="M0 1280v256h512v-256h256v-768h512v768h-256v256h512v-256h256v-768h-256v-256h-1024v256h-256v768h-256z" />
<glyph unicode="&#x3c6;" d="M0 512v768h256v256h256v-1024h256v768h256v-768h256v768h-256v256h512v-256h256v-768h-256v-256h-512v-256h-256v256h-512v256h-256z" />
<glyph unicode="&#x3c7;" d="M0 0v512h256v256h256v256h-256v256h-256v256h512v-256h256v-256h256v256h256v256h512v-256h-256v-256h-256v-256h256v-256h256v-512h-512v512h-256v256h-256v-256h-256v-512h-512z" />
<glyph unicode="&#x3c8;" d="M0 512v1024h512v-1024h256v1280h512v-1280h256v1024h512v-1024h-256v-256h-512v-256h-512v256h-512v256h-256z" />
<glyph unicode="&#x3c9;" d="M0 512v768h256v256h256v-1024h256v-256h-512v256h-256zM768 512v768h256v-768h-256zM1024 256v256h256v1024h256v-256h256v-768h-256v-256h-512z" />
<glyph unicode="&#x3ca;" d="M0 1792v256h512v-256h-512zM256 1280v256h768v-1024h512v-256h-768v256h-256v768h-256zM768 1792v256h512v-256h-512z" />
<glyph unicode="&#x3cb;" d="M0 1280v256h512v-256h256v-768h512v768h-256v256h512v-256h256v-768h-256v-256h-1024v256h-256v768h-256zM256 1792v256h512v-256h-512zM1024 1792v256h512v-256h-512z" />
<glyph unicode="&#x3cc;" d="M0 512v768h256v256h512v256h256v-256h512v-256h256v-768h-256v-256h-1280v256h-256zM512 512h768v768h-768v-768zM1024 1792v256h256v-256h-256z" />
<glyph unicode="&#x3cd;" d="M0 1280v256h512v-256h256v-768h512v768h-256v256h512v-256h256v-768h-256v-256h-1024v256h-256v768h-256zM768 1536v256h256v-256h-256zM1024 1792v256h256v-256h-256z" />
<glyph unicode="&#x3ce;" d="M0 512v768h256v256h256v-1024h256v-256h-512v256h-256zM768 512v768h256v-768h-256zM768 1536v256h256v-256h-256zM1024 256v256h256v1024h256v-256h256v-768h-256v-256h-512zM1024 1792v256h256v-256h-256z" />
<glyph unicode="&#x400;" d="M0 256v1280h768v256h256v-256h768v-256h-1280v-256h1024v-256h-1024v-256h1280v-256h-1792zM512 1792v256h256v-256h-256z" />
<glyph unicode="&#x401;" d="M0 256v1280h1792v-256h-1280v-256h1024v-256h-1024v-256h1280v-256h-1792zM256 1792v256h512v-256h-512zM1024 1792v256h512v-256h-512z" />
<glyph unicode="&#x402;" d="M0 1792v256h1280v-256h-512v-256h768v-256h256v-1024h-256v-256h-512v256h256v1024h-512v-1024h-512v1536h-256z" />
<glyph unicode="&#x403;" d="M256 256v1280h512v256h256v-256h768v-512h-256v256h-768v-1024h-512zM1024 1792v256h256v-256h-256z" />
<glyph unicode="&#x404;" d="M0 768v768h256v256h256v256h1024v-256h256v-256h-512v256h-512v-256h-256v-256h1024v-256h-1024v-256h256v-256h512v256h512v-256h-256v-256h-1024v256h-256v256h-256z" />
<glyph unicode="&#x405;" d="M0 512v256h512v-256h768v512h-1024v256h-256v512h256v256h1280v-256h256v-256h-512v256h-768v-512h1024v-256h256v-512h-256v-256h-1280v256h-256z" />
<glyph unicode="&#x406;" d="M256 256v256h512v1280h-512v256h1536v-256h-512v-1280h512v-256h-1536z" />
<glyph unicode="&#x407;" d="M256 256v256h512v768h-512v256h1536v-256h-512v-768h512v-256h-1536zM256 1792v256h512v-256h-512zM1280 1792v256h512v-256h-512z" />
<glyph unicode="&#x408;" d="M0 512v256h512v-256h768v1536h512v-1536h-256v-256h-1280v256h-256z" />
<glyph unicode="&#x409;" d="M0 256v512h256v1280h1024v-512h512v-1280h-1024v1536h-256v-1536h-512zM1280 512h256v768h-256v-768z" />
<glyph unicode="&#x40a;" d="M0 256v1792h512v-768h256v768h512v-512h512v-1280h-1024v768h-256v-768h-512zM1280 512h256v768h-256v-768z" />
<glyph unicode="&#x40b;" d="M0 1792v256h1280v-256h-512v-256h768v-256h256v-1024h-512v1024h-512v-1024h-512v1536h-256z" />
<glyph unicode="&#x40c;" d="M0 256v1280h512v-512h512v256h256v-256h256v-256h256v-512h-512v512h-768v-512h-512zM768 1536v256h256v-256h-256zM1024 1792v256h256v-256h-256zM1280 1280v256h512v-256h-512z" />
<glyph unicode="&#x40d;" d="M0 256v1280h512v-768h256v256h256v256h256v256h512v-1280h-512v512h-256v-256h-256v-256h-768zM512 1792v256h256v-256h-256zM768 1536v256h256v-256h-256z" />
<glyph unicode="&#x40e;" d="M0 768v768h512v-768h768v768h512v-1280h-256v-256h-1280v256h1024v256h-1024v256h-256zM256 1792v256h1280v-256h-1280z" />
<glyph unicode="&#x40f;" d="M0 256v1792h512v-1536h768v1536h512v-1792h-768v-256h-256v256h-768z" />
<glyph unicode="&#x410;" d="M0 256v1280h256v256h256v256h768v-256h256v-256h256v-1280h-512v512h-768v-512h-512zM512 1024h768v512h-256v256h-256v-256h-256v-512z" />
<glyph unicode="&#x411;" d="M0 256v1792h1536v-256h-1024v-512h1024v-256h256v-512h-256v-256h-1536zM512 512h768v512h-768v-512z" />
<glyph unicode="&#x412;" d="M0 256v1792h1536v-256h256v-512h-256v-256h256v-512h-256v-256h-1536zM512 512h768v512h-768v-512zM512 1280h768v512h-768v-512z" />
<glyph unicode="&#x413;" d="M256 256v1792h1536v-512h-256v256h-768v-1536h-512z" />
<glyph unicode="&#x414;" d="M0 0v512h256v512h256v1024h1280v-1536h256v-512h-512v256h-1024v-256h-512zM768 512h512v1280h-512v-1280z" />
<glyph unicode="&#x415;" d="M0 256v1792h1792v-256h-1280v-512h1024v-256h-1024v-512h1280v-256h-1792z" />
<glyph unicode="&#x416;" d="M0 256v512h256v256h256v-768h-512zM0 1536v512h512v-768h-256v256h-256zM512 1024v256h256v768h256v-768h256v-256h-256v-768h-256v768h-256zM1280 256v768h256v-256h256v-512h-512zM1280 1280v768h512v-512h-256v-256h-256z" />
<glyph unicode="&#x417;" d="M0 512v256h512v-256h768v512h-768v256h768v512h-768v-256h-512v256h256v256h1280v-256h256v-512h-256v-256h256v-512h-256v-256h-1280v256h-256z" />
<glyph unicode="&#x418;" d="M0 256v1792h512v-1024h256v256h256v256h256v512h512v-1792h-512v768h-256v-256h-256v-256h-256v-256h-512z" />
<glyph unicode="&#x419;" d="M0 256v1280h512v-768h256v256h256v256h256v256h512v-1280h-512v512h-256v-256h-256v-256h-768zM256 1792v256h1280v-256h-1280z" />
<glyph unicode="&#x41a;" d="M0 256v1792h512v-768h256v256h256v-256h256v-256h256v-512h256v-256h-512v256h-256v512h-512v-768h-512zM1024 1536v256h256v256h512v-256h-256v-256h-512z" />
<glyph unicode="&#x41b;" d="M0 256v512h256v256h256v1024h1280v-1792h-512v1536h-512v-1280h-256v-256h-512z" />
<glyph unicode="&#x41c;" d="M0 256v1792h512v-256h256v-256h256v256h256v256h512v-1792h-512v1024h-256v-512h-256v512h-256v-1024h-512z" />
<glyph unicode="&#x41d;" d="M0 256v1792h512v-768h768v768h512v-1792h-512v768h-768v-768h-512z" />
<glyph unicode="&#x41e;" d="M0 512v1280h256v256h1280v-256h256v-1280h-256v-256h-1280v256h-256zM512 512h768v1280h-768v-1280z" />
<glyph unicode="&#x41f;" d="M0 256v1792h1792v-1792h-512v1536h-768v-1536h-512z" />
<glyph unicode="&#x420;" d="M0 256v1792h1536v-256h256v-768h-256v-256h-1024v-512h-512zM512 1024h768v768h-768v-768z" />
<glyph unicode="&#x421;" d="M0 768v768h256v256h256v256h1024v-256h256v-256h-512v256h-512v-256h-256v-768h256v-256h512v256h512v-256h-256v-256h-1024v256h-256v256h-256z" />
<glyph unicode="&#x422;" d="M256 1792v256h1536v-256h-512v-1536h-512v1536h-512z" />
<glyph unicode="&#x423;" d="M0 512v256h512v-256h768v512h-1024v256h-256v768h512v-768h768v768h512v-1536h-256v-256h-1280v256h-256z" />
<glyph unicode="&#x424;" d="M0 768v768h256v256h512v256h256v-256h512v-256h256v-768h-256v-256h-512v-256h-256v256h-512v256h-256zM512 768h256v768h-256v-768zM1024 768h256v768h-256v-768z" />
<glyph unicode="&#x425;" d="M0 256v512h256v256h256v256h-256v256h-256v512h512v-512h256v-256h256v256h256v512h512v-512h-256v-256h-256v-256h256v-256h256v-512h-512v512h-256v256h-256v-256h-256v-512h-512z" />
<glyph unicode="&#x426;" d="M0 256v1792h512v-1536h512v1536h512v-1536h256v-512h-512v256h-1280z" />
<glyph unicode="&#x427;" d="M0 1280v768h512v-768h768v768h512v-1792h-512v768h-1024v256h-256z" />
<glyph unicode="&#x428;" d="M0 256v1792h512v-1536h256v1536h256v-1536h256v1536h512v-1792h-1792z" />
<glyph unicode="&#x429;" d="M0 256v1792h512v-1536h256v1536h256v-1536h256v1536h512v-1536h256v-512h-512v256h-1536z" />
<glyph unicode="&#x42a;" d="M0 1792v256h768v-512h768v-256h256v-768h-256v-256h-1280v1536h-256zM768 512h512v768h-512v-768z" />
<glyph unicode="&#x42b;" d="M0 256v1792h512v-512h512v-1280h-1024zM512 512h256v768h-256v-768zM1280 256v1792h512v-1792h-512z" />
<glyph unicode="&#x42c;" d="M0 256v1792h512v-512h1024v-256h256v-768h-256v-256h-1536zM512 512h768v768h-768v-768z" />
<glyph unicode="&#x42d;" d="M0 512v256h512v-256h512v256h256v256h-1024v256h1024v256h-256v256h-512v-256h-512v256h256v256h1024v-256h256v-256h256v-768h-256v-256h-256v-256h-1024v256h-256z" />
<glyph unicode="&#x42e;" d="M0 256v1792h256v-768h256v512h256v256h768v-256h256v-1280h-256v-256h-768v256h-256v512h-256v-768h-256zM1024 512h256v1280h-256v-1280z" />
<glyph unicode="&#x42f;" d="M0 256v256h256v256h256v256h-512v768h256v256h1536v-1792h-512v512h-512v-512h-768zM512 1280h256v-256h512v768h-768v-512z" />
<glyph unicode="&#x430;" d="M0 512v256h256v256h1024v256h-1024v256h1280v-256h256v-1024h-1536v256h-256zM512 512h768v256h-768v-256z" />
<glyph unicode="&#x431;" d="M0 512v1280h256v256h1536v-256h-1280v-512h256v-256h-256v-512h768v768h-512v256h768v-256h256v-768h-256v-256h-1280v256h-256z" />
<glyph unicode="&#x432;" d="M0 256v1280h1536v-256h256v-256h-256v-256h256v-256h-256v-256h-1536zM512 512h768v256h-768v-256zM512 1024h768v256h-768v-256z" />
<glyph unicode="&#x433;" d="M256 256v1280h1536v-512h-256v256h-768v-1024h-512z" />
<glyph unicode="&#x434;" d="M0 0v512h256v256h256v768h1280v-1024h256v-512h-512v256h-1024v-256h-512zM768 512h512v768h-512v-768z" />
<glyph unicode="&#x435;" d="M0 512v768h256v256h1280v-256h256v-512h-1280v-256h1024v-256h-1280v256h-256zM512 1024h768v256h-768v-256z" />
<glyph unicode="&#x436;" d="M0 256v512h256v256h-256v512h512v-512h256v512h256v-512h256v512h512v-512h-256v-256h256v-512h-512v512h-256v-512h-256v512h-256v-512h-512z" />
<glyph unicode="&#x437;" d="M0 512v256h512v-256h768v256h-512v256h512v256h-768v-256h-512v256h256v256h1280v-256h256v-256h-256v-256h256v-256h-256v-256h-1280v256h-256z" />
<glyph unicode="&#x438;" d="M0 256v1280h512v-768h256v-256h-256v-256h-512zM768 768v256h256v-256h-256zM1024 1024v256h256v256h512v-1280h-512v768h-256z" />
<glyph unicode="&#x439;" d="M0 256v1280h512v-768h256v-256h-256v-256h-512zM256 1792v256h1280v-256h-1280zM768 768v256h256v-256h-256zM1024 1024v256h256v256h512v-1280h-512v768h-256z" />
<glyph unicode="&#x43a;" d="M0 256v1280h512v-512h512v256h256v-256h256v-256h256v-512h-512v512h-768v-512h-512zM1280 1280v256h512v-256h-512z" />
<glyph unicode="&#x43b;" d="M0 256v512h256v256h256v512h1280v-1280h-512v1024h-512v-768h-256v-256h-512z" />
<glyph unicode="&#x43c;" d="M0 256v1280h512v-256h256v-256h-256v-768h-512zM768 512v512h256v-512h-256zM1024 1024v256h256v256h512v-1280h-512v768h-256z" />
<glyph unicode="&#x43d;" d="M0 256v1280h512v-512h768v512h512v-1280h-512v512h-768v-512h-512z" />
<glyph unicode="&#x43e;" d="M0 512v768h256v256h1280v-256h256v-768h-256v-256h-1280v256h-256zM512 512h768v768h-768v-768z" />
<glyph unicode="&#x43f;" d="M0 256v1280h1792v-1280h-512v1024h-768v-1024h-512z" />
<glyph unicode="&#x440;" d="M0 0v1536h512v-256h256v-256h-256v-512h768v768h-512v256h768v-256h256v-768h-256v-256h-1024v-256h-512z" />
<glyph unicode="&#x441;" d="M0 512v768h256v256h1280v-256h256v-256h-512v256h-768v-768h768v256h512v-256h-256v-256h-1280v256h-256z" />
<glyph unicode="&#x442;" d="M256 1280v256h1536v-256h-512v-1024h-512v1024h-512z" />
<glyph unicode="&#x443;" d="M0 768v768h512v-768h768v768h512v-1280h-256v-256h-1280v256h1024v256h-1024v256h-256z" />
<glyph unicode="&#x444;" d="M0 512v768h256v256h512v256h256v-256h512v-256h256v-768h-256v-256h-512v-256h-256v256h-512v256h-256zM512 512h256v768h-256v-768zM1024 512h256v768h-256v-768z" />
<glyph unicode="&#x445;" d="M0 256v256h256v256h256v256h-256v256h-256v256h512v-256h256v-256h256v256h256v256h512v-256h-256v-256h-256v-256h256v-256h256v-256h-512v256h-256v256h-256v-256h-256v-256h-512z" />
<glyph unicode="&#x446;" d="M0 256v1280h512v-1024h512v1024h512v-1024h256v-512h-512v256h-1280z" />
<glyph unicode="&#x447;" d="M0 1024v512h512v-512h768v512h512v-1280h-512v512h-1024v256h-256z" />
<glyph unicode="&#x448;" d="M0 256v1280h512v-1024h256v1024h256v-1024h256v1024h512v-1280h-1792z" />
<glyph unicode="&#x449;" d="M0 256v1280h512v-1024h256v1024h256v-1024h256v1024h512v-1024h256v-512h-512v256h-1536z" />
<glyph unicode="&#x44a;" d="M0 1280v256h768v-512h768v-256h256v-256h-256v-256h-1280v1024h-256zM768 512h512v256h-512v-256z" />
<glyph unicode="&#x44b;" d="M0 256v1280h512v-512h512v-768h-1024zM512 512h256v256h-256v-256zM1280 256v1280h512v-1280h-512z" />
<glyph unicode="&#x44c;" d="M0 256v1280h512v-512h1024v-256h256v-256h-256v-256h-1536zM512 512h768v256h-768v-256z" />
<glyph unicode="&#x44d;" d="M0 512v256h512v-256h768v256h-512v256h512v256h-768v-256h-512v256h256v256h1280v-256h256v-768h-256v-256h-1280v256h-256z" />
<glyph unicode="&#x44e;" d="M0 256v1280h256v-512h256v256h256v256h768v-256h256v-768h-256v-256h-768v256h-256v256h-256v-512h-256zM1024 512h256v768h-256v-768z" />
<glyph unicode="&#x44f;" d="M0 256v512h256v256h-256v256h256v256h1536v-1280h-512v512h-768v-512h-512zM512 1024h768v256h-768v-256z" />
<glyph unicode="&#x450;" d="M0 512v768h256v256h512v256h256v-256h512v-256h256v-512h-1280v-256h1024v-256h-1280v256h-256zM512 1024h768v256h-768v-256zM512 1792v256h256v-256h-256z" />
<glyph unicode="&#x451;" d="M0 512v768h256v256h1280v-256h256v-512h-1280v-256h1024v-256h-1280v256h-256zM256 1792v256h512v-256h-512zM512 1024h768v256h-768v-256zM1024 1792v256h512v-256h-512z" />
<glyph unicode="&#x452;" d="M0 1536v256h256v256h512v-256h512v-256h-512v-256h768v-256h256v-768h-256v-256h-512v256h256v768h-512v-768h-512v1280h-256z" />
<glyph unicode="&#x453;" d="M256 256v1280h768v256h256v-256h512v-512h-256v256h-768v-1024h-512zM1280 1792v256h256v-256h-256z" />
<glyph unicode="&#x454;" d="M0 512v768h256v256h1280v-256h256v-256h-512v256h-768v-256h512v-256h-512v-256h768v256h512v-256h-256v-256h-1280v256h-256z" />
<glyph unicode="&#x455;" d="M0 256v256h1280v256h-1024v256h-256v256h256v256h1280v-256h-1024v-256h1024v-256h256v-256h-256v-256h-1536z" />
<glyph unicode="&#x456;" d="M256 256v256h512v768h-256v256h768v-1024h512v-256h-1536zM768 1792v256h512v-256h-512z" />
<glyph unicode="&#x457;" d="M256 256v256h512v768h-256v256h768v-1024h512v-256h-1536zM256 1792v256h512v-256h-512zM1024 1792v256h512v-256h-512z" />
<glyph unicode="&#x458;" d="M256 0v256h768v1024h-256v256h768v-1280h-256v-256h-1024zM1024 1792v256h512v-256h-512z" />
<glyph unicode="&#x459;" d="M0 256v512h256v768h1024v-256h512v-1024h-1024v1024h-256v-1024h-512zM1280 512h256v512h-256v-512z" />
<glyph unicode="&#x45a;" d="M0 256v1280h512v-512h256v512h512v-256h512v-1024h-1024v512h-256v-512h-512zM1280 512h256v512h-256v-512z" />
<glyph unicode="&#x45b;" d="M0 1536v256h256v256h512v-256h512v-256h-512v-256h768v-256h256v-768h-512v768h-512v-768h-512v1280h-256z" />
<glyph unicode="&#x45c;" d="M0 256v1280h512v-512h512v256h256v-256h256v-256h256v-512h-512v512h-768v-512h-512zM768 1536v256h256v-256h-256zM1024 1792v256h256v-256h-256zM1280 1280v256h512v-256h-512z" />
<glyph unicode="&#x45d;" d="M0 256v1280h512v-768h256v-256h-256v-256h-512zM512 1792v256h256v-256h-256zM768 768v256h256v-256h-256zM768 1536v256h256v-256h-256zM1024 1024v256h256v256h512v-1280h-512v768h-256z" />
<glyph unicode="&#x45e;" d="M0 768v768h512v-768h768v768h512v-1280h-256v-256h-1280v256h1024v256h-1024v256h-256zM256 1792v256h1280v-256h-1280z" />
<glyph unicode="&#x45f;" d="M0 256v1280h512v-1024h768v1024h512v-1280h-768v-256h-256v256h-768z" />
<glyph unicode="&#x462;" d="M0 1536v256h256v256h512v-256h512v-256h-512v-256h768v-256h256v-512h-256v-256h-1280v1280h-256zM768 512h512v512h-512v-512z" />
<glyph unicode="&#x463;" d="M0 1280v256h256v512h512v-512h512v-256h-512v-256h768v-256h256v-256h-256v-256h-1280v1024h-256zM768 512h512v256h-512v-256z" />
<glyph unicode="&#x46a;" d="M0 256v512h256v256h256v-768h-512zM0 1536v512h1792v-512h-256v256h-1280v-256h-256zM256 1280v256h256v-256h-256zM512 1024v256h768v-256h-256v-768h-256v768h-256zM1280 256v768h256v-256h256v-512h-512zM1280 1280v256h256v-256h-256z" />
<glyph unicode="&#x46b;" d="M0 256v512h512v-512h-512zM0 1280v256h1792v-256h-256v-256h-256v256h-768v-256h-256v256h-256zM512 768v256h768v-256h-256v-512h-256v512h-256zM1280 256v512h512v-512h-512z" />
<glyph unicode="&#x472;" d="M0 512v1280h256v256h1280v-256h256v-1280h-256v-256h-1280v256h-256zM256 1024h1280v256h-1280v-256zM512 512h768v1280h-768v-1280z" />
<glyph unicode="&#x473;" d="M0 512v768h256v256h1280v-256h256v-768h-256v-256h-1280v256h-256zM256 768h1280v256h-1280v-256zM512 512h768v768h-768v-768z" />
<glyph unicode="&#x474;" d="M0 1024v1024h512v-1024h256v-256h256v256h256v1024h512v-512h-256v-768h-256v-256h-256v-256h-256v256h-256v256h-256v256h-256z" />
<glyph unicode="&#x475;" d="M256 768v768h512v-768h512v768h512v-256h-256v-768h-256v-256h-512v256h-256v256h-256z" />
<glyph unicode="&#x490;" d="M256 256v1536h1024v256h512v-512h-1024v-1280h-512z" />
<glyph unicode="&#x491;" d="M256 256v1280h1024v256h512v-512h-1024v-1024h-512z" />
<glyph unicode="&#x492;" d="M0 1024v256h256v768h1536v-512h-256v256h-768v-512h512v-256h-512v-768h-512v768h-256z" />
<glyph unicode="&#x493;" d="M0 768v256h256v512h1536v-512h-256v256h-768v-256h512v-256h-512v-512h-512v512h-256z" />
<glyph unicode="&#x494;" d="M256 256v1792h1536v-512h-256v256h-768v-512h768v-256h256v-768h-256v-256h-512v256h256v768h-512v-768h-512z" />
<glyph unicode="&#x495;" d="M256 256v1280h1536v-256h-1024v-256h768v-256h256v-512h-256v-256h-512v256h256v512h-512v-512h-512z" />
<glyph unicode="&#x496;" d="M0 256v512h256v256h256v-768h-512zM0 1536v512h512v-768h-256v256h-256zM512 1024v256h256v768h256v-768h256v-256h-256v-768h-256v768h-256zM1280 256v768h256v-256h256v-256h256v-512h-512v256h-256zM1280 1280v768h512v-512h-256v-256h-256z" />
<glyph unicode="&#x497;" d="M0 256v512h256v256h-256v512h512v-512h256v512h256v-512h256v512h512v-512h-256v-256h256v-256h256v-512h-512v256h-256v512h-256v-512h-256v512h-256v-512h-512z" />
<glyph unicode="&#x498;" d="M0 512v256h512v-256h768v512h-768v256h768v512h-768v-256h-512v256h256v256h1280v-256h256v-512h-256v-256h256v-512h-256v-256h-512v-256h-256v256h-512v256h-256z" />
<glyph unicode="&#x499;" d="M0 512v256h512v-256h768v256h-512v256h512v256h-768v-256h-512v256h256v256h1280v-256h256v-256h-256v-256h256v-256h-256v-256h-512v-256h-256v256h-512v256h-256z" />
<glyph unicode="&#x49a;" d="M0 256v1792h512v-768h256v256h256v-256h256v-256h256v-512h256v-512h-512v512h-256v512h-512v-768h-512zM1024 1536v256h256v256h512v-256h-256v-256h-512z" />
<glyph unicode="&#x49b;" d="M0 256v1280h512v-512h512v256h256v-256h256v-256h256v-256h256v-512h-512v256h-256v512h-768v-512h-512zM1280 1280v256h512v-256h-512z" />
<glyph unicode="&#x49c;" d="M0 256v1792h512v-768h256v256h256v-256h256v-256h-256v-256h-256v256h-256v-768h-512zM1280 256v768h256v-256h256v-512h-512zM1280 1280v768h512v-256h-256v-512h-256z" />
<glyph unicode="&#x49d;" d="M0 256v1280h512v-512h256v256h256v-256h256v-256h-256v-256h-256v256h-256v-512h-512zM1280 256v512h512v-512h-512zM1280 1024v512h512v-256h-256v-256h-256z" />
<glyph unicode="&#x4a0;" d="M0 1792v256h768v-768h256v256h256v-512h256v-512h256v-256h-512v256h-256v512h-256v-768h-512v1536h-256zM1280 1536v512h512v-256h-256v-256h-256z" />
<glyph unicode="&#x4a1;" d="M0 1280v256h768v-512h256v256h256v-256h256v-256h256v-512h-512v512h-512v-512h-512v1024h-256zM1280 1280v256h512v-256h-512z" />
<glyph unicode="&#x4a2;" d="M0 256v1792h512v-768h768v768h512v-1536h256v-512h-512v256h-256v768h-768v-768h-512z" />
<glyph unicode="&#x4a3;" d="M0 256v1280h512v-512h768v512h512v-1024h256v-512h-512v256h-256v512h-768v-512h-512z" />
<glyph unicode="&#x4a4;" d="M0 256v1792h512v-768h256v768h1024v-512h-256v256h-256v-1536h-512v768h-256v-768h-512z" />
<glyph unicode="&#x4a5;" d="M0 256v1280h512v-512h256v512h1024v-512h-256v256h-256v-1024h-512v512h-256v-512h-512z" />
<glyph unicode="&#x4aa;" d="M0 768v768h256v256h256v256h1024v-256h256v-256h-512v256h-512v-256h-256v-768h256v-256h512v256h512v-256h-256v-256h-256v-256h-512v256h-256v256h-256v256h-256z" />
<glyph unicode="&#x4ab;" d="M0 512v768h256v256h1280v-256h256v-256h-512v256h-768v-768h768v256h512v-256h-256v-256h-512v-256h-256v256h-512v256h-256z" />
<glyph unicode="&#x4ac;" d="M256 1792v256h1536v-256h-512v-1280h256v-512h-512v256h-256v1536h-512z" />
<glyph unicode="&#x4ad;" d="M256 1280v256h1536v-256h-512v-768h256v-512h-512v256h-256v1024h-512z" />
<glyph unicode="&#x4ae;" d="M256 1280v768h512v-768h512v768h512v-768h-256v-256h-256v-768h-512v768h-256v256h-256z" />
<glyph unicode="&#x4af;" d="M256 768v768h512v-768h512v768h512v-768h-256v-256h-256v-512h-512v512h-256v256h-256z" />
<glyph unicode="&#x4b0;" d="M256 1280v768h512v-768h512v768h512v-768h-256v-256h-256v-256h256v-256h-256v-256h-512v256h-256v256h256v256h-256v256h-256z" />
<glyph unicode="&#x4b1;" d="M256 1024v512h512v-512h512v512h512v-512h-256v-256h-256v-256h256v-256h-256v-256h-512v256h-256v256h256v256h-256v256h-256z" />
<glyph unicode="&#x4b6;" d="M0 1280v768h512v-768h768v768h512v-1536h256v-512h-512v256h-256v768h-1024v256h-256z" />
<glyph unicode="&#x4b7;" d="M0 1024v512h512v-512h768v512h512v-1024h256v-512h-512v256h-256v512h-1024v256h-256z" />
<glyph unicode="&#x4b8;" d="M0 1280v768h512v-768h256v256h256v-256h256v768h512v-1792h-512v768h-256v-256h-256v256h-512v256h-256z" />
<glyph unicode="&#x4b9;" d="M0 1024v512h512v-512h256v256h256v-256h256v512h512v-1280h-512v512h-256v-256h-256v256h-512v256h-256z" />
<glyph unicode="&#x4ba;" d="M256 256v1792h512v-768h1024v-256h256v-768h-512v768h-768v-768h-512z" />
<glyph unicode="&#x4bb;" d="M0 256v1792h512v-768h256v-256h-256v-768h-512zM768 1280v256h768v-256h256v-1024h-512v1024h-512z" />
<glyph unicode="&#x4c0;" d="M256 256v256h512v1280h-512v256h1536v-256h-512v-1280h512v-256h-1536z" />
<glyph unicode="&#x4c1;" d="M0 256v512h256v256h-256v512h512v-512h256v512h256v-512h256v512h512v-512h-256v-256h256v-512h-512v512h-256v-512h-256v512h-256v-512h-512zM256 1792v256h1280v-256h-1280z" />
<glyph unicode="&#x4c2;" d="M0 256v512h256v256h-256v512h512v-512h256v512h256v-512h256v512h512v-512h-256v-256h256v-512h-512v512h-256v-512h-256v512h-256v-512h-512zM256 1792v256h1280v-256h-1280z" />
<glyph unicode="&#x4cb;" d="M0 1280v768h512v-768h768v768h512v-1536h256v-512h-512v256h-256v768h-1024v256h-256z" />
<glyph unicode="&#x4cc;" d="M0 1024v512h512v-512h768v512h512v-1024h256v-512h-512v256h-256v512h-1024v256h-256z" />
<glyph unicode="&#x4cf;" d="M256 256v256h512v1280h-256v256h768v-1536h512v-256h-1536z" />
<glyph unicode="&#x4d0;" d="M0 256v768h256v256h256v256h768v-256h256v-256h256v-768h-512v256h-768v-256h-512zM256 1792v256h1280v-256h-1280zM512 768h768v256h-256v256h-256v-256h-256v-256z" />
<glyph unicode="&#x4d1;" d="M0 512v256h256v256h1024v256h-1024v256h1280v-256h256v-1024h-1536v256h-256zM256 1792v256h1280v-256h-1280zM512 512h768v256h-768v-256z" />
<glyph unicode="&#x4d2;" d="M0 256v768h256v256h256v256h768v-256h256v-256h256v-768h-512v256h-768v-256h-512zM256 1792v256h512v-256h-512zM512 768h768v256h-256v256h-256v-256h-256v-256zM1024 1792v256h512v-256h-512z" />
<glyph unicode="&#x4d3;" d="M0 512v256h256v256h1024v256h-1024v256h1280v-256h256v-1024h-1536v256h-256zM256 1792v256h512v-256h-512zM512 512h768v256h-768v-256zM1024 1792v256h512v-256h-512z" />
<glyph unicode="&#x4d4;" d="M0 256v1280h256v256h256v256h1280v-256h-512v-512h512v-256h-512v-512h512v-256h-1024v512h-256v-512h-512zM512 1024h256v512h-256v-512z" />
<glyph unicode="&#x4d5;" d="M0 512v256h256v256h512v256h-512v256h1280v-256h256v-256h-256v-256h-512v-256h512v-256h-1280v256h-256zM512 512h256v256h-256v-256zM1024 1024h256v256h-256v-256z" />
<glyph unicode="&#x4d6;" d="M0 256v1280h1792v-256h-1280v-256h1024v-256h-1024v-256h1280v-256h-1792zM256 1792v256h1280v-256h-1280z" />
<glyph unicode="&#x4d7;" d="M0 512v768h256v256h1280v-256h256v-512h-1280v-256h1024v-256h-1280v256h-256zM256 1792v256h1280v-256h-1280zM512 1024h768v256h-768v-256z" />
<glyph unicode="&#x4d8;" d="M0 512v768h1280v512h-768v-256h-512v256h256v256h1280v-256h256v-1280h-256v-256h-1280v256h-256zM512 512h768v512h-768v-512z" />
<glyph unicode="&#x4d9;" d="M0 512v512h1280v256h-1024v256h1280v-256h256v-768h-256v-256h-1280v256h-256zM512 512h768v256h-768v-256z" />
<glyph unicode="&#x4dc;" d="M0 256v512h256v256h-256v512h512v-512h256v512h256v-512h256v512h512v-512h-256v-256h256v-512h-512v512h-256v-512h-256v512h-256v-512h-512zM256 1792v256h512v-256h-512zM1024 1792v256h512v-256h-512z" />
<glyph unicode="&#x4dd;" d="M0 256v512h256v256h-256v512h512v-512h256v512h256v-512h256v512h512v-512h-256v-256h256v-512h-512v512h-256v-512h-256v512h-256v-512h-512zM256 1792v256h512v-256h-512zM1024 1792v256h512v-256h-512z" />
<glyph unicode="&#x4de;" d="M0 512v256h512v-256h768v256h-512v256h512v256h-768v-256h-512v256h256v256h1280v-256h256v-256h-256v-256h256v-256h-256v-256h-1280v256h-256zM256 1792v256h512v-256h-512zM1024 1792v256h512v-256h-512z" />
<glyph unicode="&#x4df;" d="M0 512v256h512v-256h768v256h-512v256h512v256h-768v-256h-512v256h256v256h1280v-256h256v-256h-256v-256h256v-256h-256v-256h-1280v256h-256zM256 1792v256h512v-256h-512zM1024 1792v256h512v-256h-512z" />
<glyph unicode="&#x4e2;" d="M0 256v1280h512v-768h256v256h256v256h256v256h512v-1280h-512v512h-256v-256h-256v-256h-768zM256 1792v256h1280v-256h-1280z" />
<glyph unicode="&#x4e3;" d="M0 256v1280h512v-768h256v-256h-256v-256h-512zM256 1792v256h1280v-256h-1280zM768 768v256h256v-256h-256zM1024 1024v256h256v256h512v-1280h-512v768h-256z" />
<glyph unicode="&#x4e4;" d="M0 256v1280h512v-768h256v256h256v256h256v256h512v-1280h-512v512h-256v-256h-256v-256h-768zM256 1792v256h512v-256h-512zM1024 1792v256h512v-256h-512z" />
<glyph unicode="&#x4e5;" d="M0 256v1280h512v-768h256v-256h-256v-256h-512zM256 1792v256h512v-256h-512zM768 768v256h256v-256h-256zM1024 1024v256h256v256h512v-1280h-512v768h-256zM1024 1792v256h512v-256h-512z" />
<glyph unicode="&#x4e6;" d="M0 512v768h256v256h1280v-256h256v-768h-256v-256h-1280v256h-256zM256 1792v256h512v-256h-512zM512 512h768v768h-768v-768zM1024 1792v256h512v-256h-512z" />
<glyph unicode="&#x4e7;" d="M0 512v768h256v256h1280v-256h256v-768h-256v-256h-1280v256h-256zM256 1792v256h512v-256h-512zM512 512h768v768h-768v-768zM1024 1792v256h512v-256h-512z" />
<glyph unicode="&#x4e8;" d="M0 512v1280h256v256h1280v-256h256v-1280h-256v-256h-1280v256h-256zM256 1024h1280v256h-1280v-256zM512 512h768v1280h-768v-1280z" />
<glyph unicode="&#x4e9;" d="M0 512v768h256v256h1280v-256h256v-768h-256v-256h-1280v256h-256zM256 768h1280v256h-1280v-256zM512 512h768v768h-768v-768z" />
<glyph unicode="&#x4ee;" d="M0 1024v512h512v-512h768v512h512v-1024h-256v-256h-1280v256h1024v256h-1024v256h-256zM256 1792v256h1280v-256h-1280z" />
<glyph unicode="&#x4ef;" d="M0 768v768h512v-768h768v768h512v-1280h-256v-256h-1280v256h1024v256h-1024v256h-256zM256 1792v256h1280v-256h-1280z" />
<glyph unicode="&#x4f0;" d="M0 1024v512h512v-512h768v512h512v-1024h-256v-256h-1280v256h1024v256h-1024v256h-256zM256 1792v256h512v-256h-512zM1024 1792v256h512v-256h-512z" />
<glyph unicode="&#x4f1;" d="M0 768v768h512v-768h768v768h512v-1280h-256v-256h-1280v256h1024v256h-1024v256h-256zM256 1792v256h512v-256h-512zM1024 1792v256h512v-256h-512z" />
<glyph unicode="&#x4f2;" d="M0 1024v512h256v256h256v-768h768v512h512v-1024h-256v-256h-1280v256h1024v256h-1024v256h-256zM512 1792v256h256v-256h-256zM1024 1536v256h256v-256h-256zM1280 1792v256h256v-256h-256z" />
<glyph unicode="&#x4f3;" d="M0 768v768h256v256h256v-1024h768v768h512v-1280h-256v-256h-1280v256h1024v256h-1024v256h-256zM512 1792v256h256v-256h-256zM1024 1536v256h256v-256h-256zM1280 1792v256h256v-256h-256z" />
<glyph unicode="&#x4f4;" d="M0 1024v512h512v-512h768v512h512v-1280h-512v512h-1024v256h-256zM256 1792v256h512v-256h-512zM1024 1792v256h512v-256h-512z" />
<glyph unicode="&#x4f5;" d="M0 1024v512h512v-512h768v512h512v-1280h-512v512h-1024v256h-256zM256 1792v256h512v-256h-512zM1024 1792v256h512v-256h-512z" />
<glyph unicode="&#x4f6;" d="M256 256v1792h1536v-512h-256v256h-768v-1280h256v-512h-512v256h-256z" />
<glyph unicode="&#x4f7;" d="M256 256v1280h1536v-512h-256v256h-768v-768h256v-512h-512v256h-256z" />
<glyph unicode="&#x4f8;" d="M0 256v1280h512v-256h512v-1024h-1024zM256 1792v256h512v-256h-512zM512 512h256v512h-256v-512zM1024 1792v256h512v-256h-512zM1280 256v1280h512v-1280h-512z" />
<glyph unicode="&#x4f9;" d="M0 256v1280h512v-512h512v-768h-1024zM256 1792v256h512v-256h-512zM512 512h256v256h-256v-256zM1024 1792v256h512v-256h-512zM1280 256v1280h512v-1280h-512z" />
<glyph unicode="&#x51a;" d="M0 512v1280h256v256h1280v-256h256v-1024h-256v-256h-256v-256h-1024v256h-256zM512 512h512v256h-256v256h512v768h-768v-1280zM1536 256v256h256v-256h-256z" />
<glyph unicode="&#x51b;" d="M0 768v512h256v256h1536v-1536h-512v512h-1024v256h-256zM512 768h768v512h-768v-512z" />
<glyph unicode="&#x51c;" d="M0 512v1536h512v-1024h256v1024h256v-1024h256v1024h512v-1536h-256v-256h-256v256h-256v256h-256v-256h-256v-256h-256v256h-256z" />
<glyph unicode="&#x51d;" d="M0 512v1024h512v-1024h256v-256h-512v256h-256zM768 512v1024h256v-1024h-256zM1024 256v256h256v1024h512v-1024h-256v-256h-512z" />
<glyph unicode="&#x524;" d="M0 256v1792h1792v-1536h256v-512h-512v256h-256v1536h-768v-1536h-512z" />
<glyph unicode="&#x525;" d="M0 256v1280h1792v-1024h256v-512h-512v256h-256v1024h-768v-1024h-512z" />
<glyph unicode="&#x2000;" horiz-adv-x="1024" />
<glyph unicode="&#x2001;" />
<glyph unicode="&#x2002;" horiz-adv-x="1024" />
<glyph unicode="&#x2003;" />
<glyph unicode="&#x2004;" horiz-adv-x="682" />
<glyph unicode="&#x2005;" horiz-adv-x="512" />
<glyph unicode="&#x2006;" horiz-adv-x="341" />
<glyph unicode="&#x2007;" horiz-adv-x="341" />
<glyph unicode="&#x2008;" horiz-adv-x="256" />
<glyph unicode="&#x2009;" horiz-adv-x="409" />
<glyph unicode="&#x200a;" horiz-adv-x="113" />
<glyph unicode="&#x2010;" d="M256 1024v256h1536v-256h-1536z" />
<glyph unicode="&#x2011;" d="M256 1024v256h1536v-256h-1536z" />
<glyph unicode="&#x2012;" d="M256 1024v256h1536v-256h-1536z" />
<glyph unicode="&#x2013;" d="M0 1024v256h1792v-256h-1792z" />
<glyph unicode="&#x2014;" d="M0 1024v256h2048v-256h-2048z" />
<glyph unicode="&#x2015;" d="M0 1024v256h1792v-256h-1792z" />
<glyph unicode="&#x2018;" d="M512 1280v512h256v256h512v-256h-256v-512h-512z" />
<glyph unicode="&#x2019;" d="M512 1280v256h256v512h512v-512h-256v-256h-512z" />
<glyph unicode="&#x201a;" d="M512 256v256h256v512h512v-512h-256v-256h-512z" />
<glyph unicode="&#x201c;" d="M256 1280v512h256v256h512v-256h-256v-512h-512zM1024 1280v512h256v256h512v-256h-256v-512h-512z" />
<glyph unicode="&#x201d;" d="M256 1280v256h256v512h512v-512h-256v-256h-512zM1024 1280v256h256v512h512v-512h-256v-256h-512z" />
<glyph unicode="&#x201e;" d="M0 256v256h256v512h512v-512h-256v-256h-512zM768 256v256h256v512h512v-512h-256v-256h-512z" />
<glyph unicode="&#x2020;" d="M256 1280v256h512v512h512v-512h512v-256h-512v-1024h-512v1024h-512z" />
<glyph unicode="&#x2021;" d="M256 768v256h512v256h-512v256h512v512h512v-512h512v-256h-512v-256h512v-256h-512v-512h-512v512h-512z" />
<glyph unicode="&#x2022;" d="M512 768v512h256v256h512v-256h256v-512h-256v-256h-512v256h-256z" />
<glyph unicode="&#x2026;" d="M0 256v512h256v-512h-256zM768 256v512h256v-512h-256zM1536 256v512h256v-512h-256z" />
<glyph unicode="&#x202f;" horiz-adv-x="409" />
<glyph unicode="&#x2030;" d="M0 256v256h256v-256h-256zM0 1280v512h256v-256h256v-256h-512zM256 512v256h256v-256h-256zM256 1792v256h512v-512h-256v256h-256zM512 768v256h256v-256h-256zM768 256v512h256v-256h256v256h-256v256h1024v-512h-256v256h-256v-256h256v-256h-1024zM768 1024v256h256 v-256h-256zM1024 1280v256h256v-256h-256zM1280 1536v256h256v-256h-256zM1536 1792v256h256v-256h-256z" />
<glyph unicode="&#x2039;" d="M512 1024v256h256v256h256v256h512v-256h-256v-256h-256v-256h256v-256h256v-256h-512v256h-256v256h-256z" />
<glyph unicode="&#x203a;" d="M256 512v256h256v256h256v256h-256v256h-256v256h512v-256h256v-256h256v-256h-256v-256h-256v-256h-512z" />
<glyph unicode="&#x2044;" d="M0 256v256h256v-256h-256zM256 512v256h256v-256h-256zM512 768v256h256v-256h-256zM768 1024v256h256v-256h-256zM1024 1280v256h256v-256h-256zM1280 1536v256h256v-256h-256zM1536 1792v256h256v-256h-256z" />
<glyph unicode="&#x205f;" horiz-adv-x="512" />
<glyph unicode="&#x2074;" d="M512 1280v256h256v256h256v256h256v-1024h-256v256h-512z" />
<glyph unicode="&#x20ac;" d="M0 768v256h256v256h-256v256h512v256h256v256h768v-256h256v-256h-512v256h-256v-256h256v-256h-512v-256h512v-256h-256v-256h256v256h512v-256h-256v-256h-768v256h-256v256h-512z" />
<glyph unicode="&#x20ae;" d="M256 1792v256h1536v-256h-512v-256h256v-256h-256v-256h256v-256h-256v-512h-512v256h-256v256h256v256h-256v256h256v512h-512z" />
<glyph unicode="&#x20af;" d="M0 256v1536h256v-1280h512v-256h-768zM256 1792v256h512v-256h-512zM768 512v1280h256v-512h256v-768h256v-256h-256v-256h-256v512h-256zM1280 1280v256h256v-256h-256zM1536 512v768h256v-768h-256z" />
<glyph unicode="&#x20b4;" d="M0 768v256h1792v-256h-1024v-256h768v-256h-1024v256h-256v256h-256zM0 1280v256h1024v256h-768v256h1024v-256h256v-256h256v-256h-1792z" />
<glyph unicode="&#x20b8;" d="M256 1280v256h1536v-256h-512v-1024h-512v1024h-512zM256 1792v256h1536v-256h-1536z" />
<glyph unicode="&#x20bd;" d="M0 512v256h256v256h-256v256h256v768h1536v-256h256v-512h-256v-256h-1024v-256h512v-256h-512v-256h-512v256h-256zM768 1280h768v512h-768v-512z" />
<glyph unicode="&#x2116;" d="M0 256v1792h512v-256h-256v-1536h-256zM512 256v1536h256v-1536h-256zM1024 256v256h768v-256h-768zM1024 1024v768h256v-768h-256zM1280 768v256h256v-256h-256zM1280 1792v256h256v-256h-256zM1536 1024v768h256v-768h-256z" />
<glyph unicode="&#x2122;" d="M256 1792v256h1536v-1024h-256v512h-256v-512h-256v768h-256v-768h-256v768h-256z" />
<glyph unicode="&#x2190;" d="M0 1024v256h256v256h256v256h256v256h256v-512h1024v-768h-1024v-512h-256v256h-256v256h-256v256h-256z" />
<glyph unicode="&#x2191;" d="M0 1024v256h256v256h256v256h256v256h256v-256h256v-256h256v-256h256v-256h-512v-1024h-768v1024h-512z" />
<glyph unicode="&#x2192;" d="M0 768v768h1024v512h256v-256h256v-256h256v-256h256v-256h-256v-256h-256v-256h-256v-256h-256v512h-1024z" />
<glyph unicode="&#x2193;" d="M0 768v256h512v1024h768v-1024h512v-256h-256v-256h-256v-256h-256v-256h-256v256h-256v256h-256v256h-256z" />
<glyph unicode="&#x2202;" d="M0 512v512h256v256h1024v256h-256v256h-512v-256h-512v256h256v256h1024v-256h256v-256h256v-1024h-256v-256h-1280v256h-256zM512 512h768v512h-768v-512z" />
<glyph unicode="&#x2206;" d="M0 256v1280h256v256h256v256h768v-256h256v-256h256v-1280h-1792zM512 512h768v1024h-256v256h-256v-256h-256v-1024z" />
<glyph unicode="&#x220f;" d="M0 256v1792h1792v-1792h-512v1536h-768v-1536h-512z" />
<glyph unicode="&#x2211;" d="M0 256v256h256v256h256v256h256v256h-256v256h-256v256h-256v256h1792v-512h-512v256h-512v-256h256v-256h512v-256h-512v-256h-256v-256h512v256h512v-512h-1792z" />
<glyph unicode="&#x2215;" d="M0 256v256h256v-256h-256zM256 512v256h256v-256h-256zM512 768v256h256v-256h-256zM768 1024v256h256v-256h-256zM1024 1280v256h256v-256h-256zM1280 1536v256h256v-256h-256zM1536 1792v256h256v-256h-256z" />
<glyph unicode="&#x221a;" d="M0 768v256h512v-256h256v1280h1024v-256h-512v-1536h-768v256h-256v256h-256z" />
<glyph unicode="&#x221e;" d="M0 768v512h256v-512h-256zM256 512v256h512v-256h-512zM256 1280v256h512v-256h-512zM768 768v512h256v-512h-256zM1024 512v256h512v-256h-512zM1024 1280v256h512v-256h-512zM1536 768v512h256v-512h-256z" />
<glyph unicode="&#x222b;" d="M256 256v256h256v-256h-256zM512 0v256h256v1536h256v256h512v-256h-256v-1536h-256v-256h-512zM1536 1536v256h256v-256h-256z" />
<glyph unicode="&#x2248;" d="M0 512v256h256v-256h-256zM0 1280v256h256v-256h-256zM256 768v256h512v-256h-512zM256 1536v256h512v-256h-512zM768 512v256h512v-256h-512zM768 1280v256h512v-256h-512zM1280 768v256h256v-256h-256zM1280 1536v256h256v-256h-256z" />
<glyph unicode="&#x2260;" d="M0 256v256h256v-256h-256zM0 768v256h768v256h-768v256h1280v256h256v-256h256v-256h-768v-256h768v-256h-1280v-256h-256v256h-256zM1536 1792v256h256v-256h-256z" />
<glyph unicode="&#x2264;" d="M512 256v256h1024v-256h-1024zM512 1280v256h256v256h256v256h512v-256h-256v-256h-256v-256h256v-256h256v-256h-512v256h-256v256h-256z" />
<glyph unicode="&#x2265;" d="M512 256v256h1024v-256h-1024zM512 768v256h256v256h256v256h-256v256h-256v256h512v-256h256v-256h256v-256h-256v-256h-256v-256h-512z" />
<glyph unicode="&#x25b2;" d="M0 256v256h256v512h256v512h256v512h256v-512h256v-512h256v-512h256v-256h-1792z" />
<glyph unicode="&#x25b6;" d="M0 256v1792h256v-256h512v-256h512v-256h512v-256h-512v-256h-512v-256h-512v-256h-256z" />
<glyph unicode="&#x25bc;" d="M0 1792v256h1792v-256h-256v-512h-256v-512h-256v-512h-256v512h-256v512h-256v512h-256z" />
<glyph unicode="&#x25c0;" d="M0 1024v256h512v256h512v256h512v256h256v-1792h-256v256h-512v256h-512v256h-512z" />
<glyph unicode="&#x25ca;" d="M0 1024v256h256v-256h-256zM256 768v256h256v-256h-256zM256 1280v256h256v-256h-256zM512 512v256h256v-256h-256zM512 1536v256h256v-256h-256zM768 256v256h256v-256h-256zM768 1792v256h256v-256h-256zM1024 512v256h256v-256h-256zM1024 1536v256h256v-256h-256z M1280 768v256h256v-256h-256zM1280 1280v256h256v-256h-256zM1536 1024v256h256v-256h-256z" />
<glyph unicode="&#x25fc;" horiz-adv-x="1536" d="M0 0v1536h1536v-1536h-1536z" />
<glyph unicode="&#x2605;" d="M0 1280v256h768v512h256v-512h768v-256h-256v-256h-256v-256h256v-512h-256v256h-256v256h-256v-256h-256v-256h-256v512h256v256h-256v256h-256z" />
<glyph unicode="&#x2606;" d="M0 1280v256h768v-256h-256v-256h-256v256h-256zM256 256v512h256v256h256v-256h256v256h256v-256h256v-512h-256v256h-768v-256h-256zM768 1536v512h256v-512h-256zM1024 1280v256h768v-256h-256v-256h-256v256h-256z" />
<glyph unicode="&#x2660;" d="M0 768v512h256v256h256v256h256v256h256v-256h256v-256h256v-256h256v-512h-512v-256h256v-256h-1280v256h256v256h-512z" />
<glyph unicode="&#x2663;" d="M256 1024v512h512v-512h-512zM512 256v256h256v512h512v-512h256v-256h-1024zM768 1536v512h512v-512h-512zM1280 1024v512h512v-512h-512z" />
<glyph unicode="&#x2665;" d="M0 1024v768h256v256h512v-256h256v256h512v-256h256v-768h-256v-256h-256v-256h-256v-256h-256v256h-256v256h-256v256h-256z" />
<glyph unicode="&#x2666;" d="M0 1024v256h256v256h256v256h256v256h256v-256h256v-256h256v-256h256v-256h-256v-256h-256v-256h-256v-256h-256v256h-256v256h-256v256h-256z" />
<glyph unicode="&#x266a;" d="M0 512v256h256v256h512v1024h256v-256h256v-256h-256v-1024h-256v-256h-512v256h-256zM1280 768v256h256v-256h-256zM1280 1280v256h256v-256h-256zM1536 1024v256h256v-256h-256z" />
<glyph unicode="&#xf100;" d="M256 256v1792h1536v-1792h-1536zM512 1536h768v-256h-512v-256h768v768h-1024v-256zM768 512h256v256h-256v-256z" />
<glyph unicode="&#xf101;" d="M256 256v256h512v256h768v-512h-1280z" />
<glyph unicode="&#xf8ff;" d="M0 768v768h256v256h768v-256h256v256h512v-256h-256v-512h-256v-256h256v256h256v512h256v-768h-256v-256h-256v-256h-512v256h-256v-256h-256v256h-256v256h-256zM1024 1792v256h256v-256h-256z" />
</font>
</defs>
</svg>
